<svg id="Layer_1" data-name="Layer 1" xmlns="http://www.w3.org/2000/svg" xmlns:xlink="http://www.w3.org/1999/xlink" viewBox="0 0 30 30"><defs><style>.cls-1{fill:#fff;}.cls-2{fill:url(#radial-gradient);}</style><radialGradient id="radial-gradient" cx="15" cy="15" r="11.5" gradientUnits="userSpaceOnUse"><stop offset="0.6" stop-color="#ffbc00"/><stop offset="0.76" stop-color="#ffbc02"/><stop offset="0.82" stop-color="#ffbe09"/><stop offset="0.87" stop-color="#ffc114"/><stop offset="0.9" stop-color="#ffc425"/><stop offset="0.93" stop-color="#ffc93b"/><stop offset="0.95" stop-color="#ffcf57"/><stop offset="0.98" stop-color="#ffd676"/><stop offset="1" stop-color="#ffde9b"/><stop offset="1" stop-color="#ffdf9f"/></radialGradient></defs><rect class="cls-1" width="30" height="30" rx="5.54"/><path class="cls-2" d="M15,3.5A11.5,11.5,0,1,0,26.5,15,11.5,11.5,0,0,0,15,3.5Zm6.19,10.56L18.5,16.68l.63,3.7a.56.56,0,0,1-.81.59L15,19.23,11.68,21a.56.56,0,0,1-.82-.59l.63-3.7L8.81,14.06a.56.56,0,0,1,.31-1l3.71-.54L14.49,9.2a.56.56,0,0,1,1,0l1.66,3.36,3.71.54A.56.56,0,0,1,21.19,14.06Z"/></svg>