<svg id="Layer_1" data-name="Layer 1" xmlns="http://www.w3.org/2000/svg" xmlns:xlink="http://www.w3.org/1999/xlink" viewBox="0 0 30 30"><defs><style>.cls-1{fill:#fff;}.cls-2{fill:url(#radial-gradient);}.cls-3{fill:url(#radial-gradient-2);}</style><radialGradient id="radial-gradient" cx="15" cy="15" r="8.28" gradientUnits="userSpaceOnUse"><stop offset="0.6" stop-color="#ffbc00"/><stop offset="0.76" stop-color="#ffbc02"/><stop offset="0.82" stop-color="#ffbe09"/><stop offset="0.87" stop-color="#ffc114"/><stop offset="0.9" stop-color="#ffc425"/><stop offset="0.93" stop-color="#ffc93b"/><stop offset="0.95" stop-color="#ffcf57"/><stop offset="0.98" stop-color="#ffd676"/><stop offset="1" stop-color="#ffde9b"/><stop offset="1" stop-color="#ffdf9f"/></radialGradient><radialGradient id="radial-gradient-2" cx="15" cy="15" r="11.5" gradientUnits="userSpaceOnUse"><stop offset="0.85" stop-color="#005fff"/><stop offset="0.92" stop-color="#0260ff"/><stop offset="0.94" stop-color="#0965ff"/><stop offset="0.96" stop-color="#146dfe"/><stop offset="0.97" stop-color="#2578fe"/><stop offset="0.98" stop-color="#3b86fd"/><stop offset="0.99" stop-color="#5698fd"/><stop offset="1" stop-color="#6ba6fc"/></radialGradient></defs><rect class="cls-1" width="30" height="30" rx="5.54"/><path class="cls-2" d="M23.28,15A8.28,8.28,0,1,1,15,6.72,8.28,8.28,0,0,1,23.28,15Z"/><path class="cls-3" d="M15,3.5A11.5,11.5,0,1,0,26.5,15,11.5,11.5,0,0,0,15,3.5Zm0,21A9.5,9.5,0,1,1,24.5,15,9.51,9.51,0,0,1,15,24.5Z"/><circle class="cls-1" cx="15" cy="12.22" r="2.27"/><path class="cls-1" d="M18.86,17.22v1.42l-.3.23-.1.07-.05,0-.2.14-.11.06a6,6,0,0,1-3,.87h-.28a6,6,0,0,1-3-.87l-.11-.06L11.61,19a.18.18,0,0,1-.07,0l-.1-.07-.3-.23V17.22a1.69,1.69,0,0,1,.08-.5,2.58,2.58,0,0,1,2.57-1.85.21.21,0,0,1,.16.07l.94.94a.16.16,0,0,0,.22,0l.94-.94a.21.21,0,0,1,.16-.07,2.58,2.58,0,0,1,2.57,1.85A1.69,1.69,0,0,1,18.86,17.22Z"/></svg>