<svg id="Layer_1" data-name="Layer 1" xmlns="http://www.w3.org/2000/svg" viewBox="0 0 100 100"><defs><style>.cls-1{fill:#ffbc00;}.cls-2{fill:#005fff;}.cls-3{fill:none;stroke:#005fff;stroke-linecap:round;stroke-linejoin:round;stroke-width:1.7px;}</style></defs><path class="cls-1" d="M72.49,5.7a.82.82,0,0,1-.82-.81v-2a.82.82,0,0,1,.82-.82.82.82,0,0,1,.81.82v2A.81.81,0,0,1,72.49,5.7Z"/><path class="cls-1" d="M72.49,38.56a.82.82,0,0,1-.82-.82v-2a.82.82,0,1,1,1.63,0v2A.82.82,0,0,1,72.49,38.56Z"/><path class="cls-1" d="M89.9,21.15h-2a.82.82,0,0,1-.82-.82.82.82,0,0,1,.82-.81h2a.81.81,0,0,1,.81.81A.82.82,0,0,1,89.9,21.15Z"/><path class="cls-1" d="M57.05,21.14h-2a.81.81,0,0,1-.81-.81.82.82,0,0,1,.81-.82h2a.82.82,0,0,1,.81.82A.81.81,0,0,1,57.05,21.14Z"/><path class="cls-1" d="M72.49,21.14a.82.82,0,0,1-.82-.81v-11a.82.82,0,1,1,1.63,0v11A.81.81,0,0,1,72.49,21.14Z"/><path class="cls-1" d="M72.49,21.14h-11a.81.81,0,0,1-.81-.81.82.82,0,0,1,.81-.82h11a.82.82,0,0,1,.81.82A.81.81,0,0,1,72.49,21.14Z"/><path class="cls-2" d="M75,100H17.87A4.88,4.88,0,0,1,13,95.13v-79a4.88,4.88,0,0,1,4.87-4.87l39.67,0-.94,2.08a17.13,17.13,0,0,0-1.49,7.06A17.38,17.38,0,0,0,77.89,36.85l1.94-.63V95.13A4.88,4.88,0,0,1,75,100ZM53.11,14.15l-35.24,0A1.92,1.92,0,0,0,16,16.09v79a1.92,1.92,0,0,0,1.91,1.92H75a1.93,1.93,0,0,0,1.92-1.92V40.18a20.09,20.09,0,0,1-4.39.48A20.36,20.36,0,0,1,53.11,14.15Z"/><path class="cls-1" d="M72.49,40.66A20.35,20.35,0,0,1,52.16,20.34a20.09,20.09,0,0,1,1.75-8.27A20.35,20.35,0,1,1,72.49,40.66ZM72.49,3A17.41,17.41,0,0,0,56.6,13.28a17.13,17.13,0,0,0-1.49,7.06A17.38,17.38,0,1,0,72.49,3Z"/><polyline class="cls-3" points="56.77 73.37 62.78 69.89 56.75 66.42"/><line class="cls-3" x1="30.05" y1="69.9" x2="61.74" y2="69.9"/><polyline class="cls-3" points="36.07 85.97 30.05 82.48 36.08 79.02"/><line class="cls-3" x1="62.78" y1="82.49" x2="31.09" y2="82.49"/><path class="cls-1" d="M32.32,51A4.67,4.67,0,1,1,37,46.33,4.67,4.67,0,0,1,32.32,51Zm0-8a3.3,3.3,0,1,0,3.3,3.29A3.3,3.3,0,0,0,32.32,43Z"/><path class="cls-1" d="M28.08,52.23a6.22,6.22,0,0,0,8.48,0,6,6,0,0,1,.62.51,10.3,10.3,0,0,1,.7-1.21,7.17,7.17,0,0,0-1-.77.7.7,0,0,0-.88.12,4.83,4.83,0,0,1-7.27,0,.7.7,0,0,0-.88-.12,8.49,8.49,0,0,0-4,7.22,8.81,8.81,0,0,0,.3,2.23.7.7,0,0,0,.66.51H37.25a.85.85,0,0,1-.81-.61c-.07-.25-.13-.5-.18-.76H25.32A7,7,0,0,1,25.19,58,7.12,7.12,0,0,1,28.08,52.23Z"/><path class="cls-1" d="M60.51,51a4.67,4.67,0,1,1,4.67-4.67A4.67,4.67,0,0,1,60.51,51Zm0-8a3.3,3.3,0,1,0,3.3,3.29A3.3,3.3,0,0,0,60.51,43Z"/><path class="cls-1" d="M65,50.76a.7.7,0,0,0-.88.12,4.83,4.83,0,0,1-7.27,0,.7.7,0,0,0-.88-.12,8.1,8.1,0,0,0-1,.77,8.21,8.21,0,0,1,.72,1.21,4.15,4.15,0,0,1,.6-.51,6.23,6.23,0,0,0,8.49,0A7.12,7.12,0,0,1,67.65,58a6.31,6.31,0,0,1-.14,1.37H56.57c0,.26-.11.51-.17.76a.85.85,0,0,1-.8.61H68.06a.68.68,0,0,0,.66-.51A8,8,0,0,0,69,58,8.48,8.48,0,0,0,65,50.76Z"/><path class="cls-2" d="M46.42,49.57a6,6,0,1,1,6-6A6,6,0,0,1,46.42,49.57Zm0-10.25a4.24,4.24,0,1,0,4.24,4.24A4.24,4.24,0,0,0,46.42,39.32Z"/><path class="cls-2" d="M56.21,53.63a9.8,9.8,0,0,0-.76-1.28,10.54,10.54,0,0,0-3.22-3.08.87.87,0,0,0-1.13.16,6.25,6.25,0,0,1-9.36,0,.89.89,0,0,0-1.14-.16,10.65,10.65,0,0,0-3.22,3.08,11,11,0,0,0-.75,1.28,10.8,10.8,0,0,0-1.16,4.92,10.33,10.33,0,0,0,.2,2.08c0,.27.11.54.18.8a.89.89,0,0,0,.86.65H56.14a.88.88,0,0,0,.84-.65c.07-.26.14-.53.19-.8a11,11,0,0,0,.2-2.08A10.8,10.8,0,0,0,56.21,53.63Zm-18.8,6.69a8.12,8.12,0,0,1-.18-1.77,8.8,8.8,0,0,1,.67-3.42,7.74,7.74,0,0,1,.73-1.47A9.11,9.11,0,0,1,41,51.15a8,8,0,0,0,10.91,0,9.15,9.15,0,0,1,2.34,2.51A8.43,8.43,0,0,1,55,55.13a9,9,0,0,1,.66,3.42,9.56,9.56,0,0,1-.17,1.77Z"/></svg>