<svg id="Layer_1" data-name="Layer 1" xmlns="http://www.w3.org/2000/svg" viewBox="0 0 13.19 13.19"><defs><style>.cls-1{fill:#4d4d4d;}</style></defs><path class="cls-1" d="M6.6,13.19A.74.74,0,0,0,7.13,13L13,7.13a.77.77,0,0,0,0-1.07L7.13.22a.75.75,0,0,0-1.06,0,.74.74,0,0,0,0,1.06l5.31,5.31L6.07,11.91a.74.74,0,0,0,0,1.06A.71.71,0,0,0,6.6,13.19Z"/><path class="cls-1" d="M.75,13.19A.74.74,0,0,0,1.28,13L7.13,7.13a.76.76,0,0,0,0-1.07L1.28.22A.75.75,0,0,0,.22,1.28L5.54,6.59.22,11.91A.75.75,0,0,0,.22,13,.74.74,0,0,0,.75,13.19Z"/></svg>