<svg id="Layer_1" data-name="Layer 1" xmlns="http://www.w3.org/2000/svg" xmlns:xlink="http://www.w3.org/1999/xlink" viewBox="0 0 30 30"><defs><style>.cls-1{fill:#fff;}.cls-2{fill:url(#linear-gradient);}.cls-3{fill:url(#radial-gradient);}</style><linearGradient id="linear-gradient" x1="6.21" y1="20.6" x2="23.79" y2="20.6" gradientUnits="userSpaceOnUse"><stop offset="0" stop-color="#005fff"/><stop offset="1" stop-color="#6ba6fc"/></linearGradient><radialGradient id="radial-gradient" cx="15" cy="8.67" r="5.17" gradientUnits="userSpaceOnUse"><stop offset="0.6" stop-color="#ffbc00"/><stop offset="0.76" stop-color="#ffbc02"/><stop offset="0.82" stop-color="#ffbe09"/><stop offset="0.87" stop-color="#ffc114"/><stop offset="0.9" stop-color="#ffc425"/><stop offset="0.93" stop-color="#ffc93b"/><stop offset="0.95" stop-color="#ffcf57"/><stop offset="0.98" stop-color="#ffd676"/><stop offset="1" stop-color="#ffde9b"/><stop offset="1" stop-color="#ffdf9f"/></radialGradient></defs><rect class="cls-1" width="30" height="30" rx="5.54"/><path class="cls-2" d="M23.6,18.93a5.84,5.84,0,0,0-5.84-4.22H12.24A5.84,5.84,0,0,0,6.4,18.93a3.35,3.35,0,0,0-.19,1.13v3.22c.22.19.44.37.67.54l.24.17.15.1.43.29.25.15a13.57,13.57,0,0,0,6.74,2h.62a13.54,13.54,0,0,0,6.74-2l.25-.15.46-.31.12-.08.24-.17c.23-.17.45-.35.67-.54V20.06A3.35,3.35,0,0,0,23.6,18.93Zm-7.27.9L15.89,21V19a.87.87,0,1,0-1.74,0V21.1l-.49-1.27-1.33-3.48h1.8v.48a.87.87,0,1,0,1.74,0v-.48h1.8Z"/><circle class="cls-3" cx="15" cy="8.67" r="5.17"/></svg>