<svg id="Layer_1" data-name="Layer 1" xmlns="http://www.w3.org/2000/svg" viewBox="0 0 13.19 13.19"><defs><style>.cls-1{fill:#4d4d4d;}</style></defs><path class="cls-1" d="M6.59,13.19A.74.74,0,0,1,6.06,13L.22,7.12a.75.75,0,0,1,0-1.06L6.06.22a.75.75,0,0,1,1.06,0,.74.74,0,0,1,0,1.06L1.81,6.59l5.31,5.32a.74.74,0,0,1,0,1.06A.71.71,0,0,1,6.59,13.19Z"/><path class="cls-1" d="M12.44,13.19a.74.74,0,0,1-.53-.22L6.06,7.12a.75.75,0,0,1-.22-.53.79.79,0,0,1,.22-.53L11.91.22A.75.75,0,1,1,13,1.28L7.66,6.59,13,11.91A.75.75,0,0,1,13,13,.74.74,0,0,1,12.44,13.19Z"/></svg>