<svg id="Layer_1" data-name="Layer 1" xmlns="http://www.w3.org/2000/svg" viewBox="0 0 30 30"><defs><style>.cls-1{fill:#fff;}.cls-2{fill:#005fff;}.cls-3{fill:#ffbc00;}</style></defs><rect class="cls-1" width="30" height="30" rx="9.87"/><path class="cls-2" d="M15.28,15.08h-.57a.61.61,0,0,0-.6.49h.44a.16.16,0,0,1,.15-.08h.59a.24.24,0,0,1,.14,0h.44A.61.61,0,0,0,15.28,15.08Z"/><path class="cls-2" d="M20.92,15.88A5,5,0,0,0,17.19,15a4,4,0,1,0-4.68-.11c-1.18-.12-3.67,0-4.42,2.58a.25.25,0,0,0,0,.08v4.58a.31.31,0,0,0,.3.31H21.62a.31.31,0,0,0,.3-.31V17.73h0A2.84,2.84,0,0,0,20.92,15.88Zm-9.45-4.25a3.46,3.46,0,1,1,3.47,3.45h.34a.61.61,0,0,1,.59.46h0a4.13,4.13,0,0,0,.7-.24l-.75,1.45h0l-.24.44h0L15,18.37l-.44-.88h0L14.28,17h0l-.79-1.57a3,3,0,0,0,.62.19.61.61,0,0,1,.6-.49h.2A3.45,3.45,0,0,1,11.47,11.63ZM21.3,21.78H8.69V17.56c.77-2.55,3.52-2.18,4.17-2l1.86,3.67a.33.33,0,0,0,.28.17.3.3,0,0,0,.27-.17l1.85-3.61a4.59,4.59,0,0,1,3.39.76,2.16,2.16,0,0,1,.79,1.42Z"/><path class="cls-3" d="M15.9,15.7a.78.78,0,0,0,0-.16h0a.6.6,0,0,0-.58-.46h-.58a.62.62,0,0,0-.6.49s0,.08,0,.13a.6.6,0,0,0,.37.55l-.19.7h0l.28.53.31-1.19h.3l.43.9.24-.44h0l-.26-.52A.6.6,0,0,0,15.9,15.7Zm-.61.2h-.58a.21.21,0,0,1-.21-.2.17.17,0,0,1,.05-.13.16.16,0,0,1,.16-.08h.58a.24.24,0,0,1,.14,0,.24.24,0,0,1,.07.16A.22.22,0,0,1,15.29,15.9Z"/></svg>