<svg id="Layer_1" data-name="Layer 1" xmlns="http://www.w3.org/2000/svg" viewBox="0 0 100 100"><defs><style>.cls-1{fill:#005fff;}.cls-2{fill:none;stroke:#ffbc00;stroke-linecap:round;stroke-miterlimit:10;stroke-width:1.8px;}.cls-3{fill:#ffbc00;}</style></defs><path class="cls-1" d="M82.15,100H17.85a5.49,5.49,0,0,1-5.49-5.49v-89A5.5,5.5,0,0,1,17.85,0h64.3a5.49,5.49,0,0,1,5.49,5.49v89A5.49,5.49,0,0,1,82.15,100Zm0-96.67H17.85a2.16,2.16,0,0,0-2.16,2.16v89a2.16,2.16,0,0,0,2.16,2.16h64.3a2.16,2.16,0,0,0,2.16-2.16v-89A2.16,2.16,0,0,0,82.15,3.33Z"/><line class="cls-2" x1="25.18" y1="69.13" x2="74.82" y2="69.13"/><line class="cls-2" x1="25.18" y1="77.47" x2="74.82" y2="77.47"/><line class="cls-2" x1="25.18" y1="85.81" x2="74.82" y2="85.81"/><path class="cls-3" d="M50,36.8a4.12,4.12,0,1,1,4.12-4.12A4.13,4.13,0,0,1,50,36.8Zm0-7a2.91,2.91,0,1,0,2.91,2.91A2.91,2.91,0,0,0,50,29.77Z"/><path class="cls-3" d="M56.66,45.38H43.34a.62.62,0,0,1-.59-.45,7.68,7.68,0,0,1-.26-2A7.47,7.47,0,0,1,46,36.59a.61.61,0,0,1,.78.11,4.28,4.28,0,0,0,6.42,0,.61.61,0,0,1,.78-.11A7.47,7.47,0,0,1,57.51,43a7.68,7.68,0,0,1-.26,2A.63.63,0,0,1,56.66,45.38ZM43.81,44.17H56.19A7.1,7.1,0,0,0,56.3,43a6.25,6.25,0,0,0-2.56-5.07,5.47,5.47,0,0,1-7.48,0A6.25,6.25,0,0,0,43.7,43,7.1,7.1,0,0,0,43.81,44.17Z"/><path class="cls-1" d="M61.7,20a.78.78,0,0,1,.78.78v32.4a.77.77,0,0,1-.78.77H38.3a.77.77,0,0,1-.78-.77V20.77A.78.78,0,0,1,38.3,20H61.7m0-1.5H38.3A2.28,2.28,0,0,0,36,20.77v32.4a2.28,2.28,0,0,0,2.28,2.27H61.7A2.28,2.28,0,0,0,64,53.17V20.77a2.28,2.28,0,0,0-2.28-2.28Z"/></svg>