<svg id="Layer_1" data-name="Layer 1" xmlns="http://www.w3.org/2000/svg" xmlns:xlink="http://www.w3.org/1999/xlink" viewBox="0 0 30 30"><defs><style>.cls-1{fill:url(#linear-gradient);}.cls-2{fill:#fff;}.cls-3{fill:url(#linear-gradient-2);}.cls-4{fill:url(#radial-gradient);}</style><linearGradient id="linear-gradient" x1="0.2" y1="29.9" x2="29.45" y2="0.46" gradientUnits="userSpaceOnUse"><stop offset="0" stop-color="#6ba6fc"/><stop offset="0.01" stop-color="#68a4fc"/><stop offset="0.12" stop-color="#488ffd"/><stop offset="0.24" stop-color="#2d7dfe"/><stop offset="0.37" stop-color="#1970fe"/><stop offset="0.52" stop-color="#0b66ff"/><stop offset="0.7" stop-color="#0361ff"/><stop offset="1" stop-color="#005fff"/></linearGradient><linearGradient id="linear-gradient-2" x1="14.99" y1="21.39" x2="15.01" y2="24.86" gradientUnits="userSpaceOnUse"><stop offset="0" stop-color="#ffdf9f"/><stop offset="0.03" stop-color="#ffdd95"/><stop offset="0.2" stop-color="#ffd368"/><stop offset="0.36" stop-color="#ffcb42"/><stop offset="0.53" stop-color="#ffc425"/><stop offset="0.69" stop-color="#ffc011"/><stop offset="0.85" stop-color="#ffbd04"/><stop offset="1" stop-color="#ffbc00"/></linearGradient><radialGradient id="radial-gradient" cx="15" cy="11.06" r="5.99" gradientUnits="userSpaceOnUse"><stop offset="0.6" stop-color="#ffbc00"/><stop offset="0.76" stop-color="#ffbc02"/><stop offset="0.82" stop-color="#ffbe09"/><stop offset="0.87" stop-color="#ffc114"/><stop offset="0.9" stop-color="#ffc425"/><stop offset="0.93" stop-color="#ffc93b"/><stop offset="0.95" stop-color="#ffcf57"/><stop offset="0.98" stop-color="#ffd676"/><stop offset="1" stop-color="#ffde9b"/><stop offset="1" stop-color="#ffdf9f"/></radialGradient></defs><path class="cls-1" d="M24.89,0H5.11A2.61,2.61,0,0,0,2.5,2.61V27.39A2.61,2.61,0,0,0,5.11,30H24.89a2.61,2.61,0,0,0,2.61-2.61V2.61A2.61,2.61,0,0,0,24.89,0Zm.17,26.11a1.44,1.44,0,0,1-1.42,1.45H6.36a1.44,1.44,0,0,1-1.42-1.45V3.89A1.44,1.44,0,0,1,6.36,2.44H23.64a1.44,1.44,0,0,1,1.42,1.45Z"/><path class="cls-2" d="M25.46,3.45v23.1A1.5,1.5,0,0,1,24,28.06H6a1.5,1.5,0,0,1-1.48-1.51V3.45A1.5,1.5,0,0,1,6,1.94H24A1.5,1.5,0,0,1,25.46,3.45Z"/><path class="cls-3" d="M20.83,24.93H9.17a1.76,1.76,0,1,1,0-3.51H20.83a1.76,1.76,0,1,1,0,3.51Z"/><path class="cls-4" d="M21,11.06a6,6,0,1,1-6-6A6,6,0,0,1,21,11.06Z"/><path class="cls-2" d="M15.63,12.39a.73.73,0,0,0-.14-.47,1.55,1.55,0,0,0-.52-.33,4.58,4.58,0,0,1-1.32-.73,1.39,1.39,0,0,1-.41-1.08,1.42,1.42,0,0,1,.44-1.07,1.9,1.9,0,0,1,1.16-.49V7.41h.61v.82a1.76,1.76,0,0,1,1.1.57,1.8,1.8,0,0,1,.39,1.2H15.66a1,1,0,0,0-.16-.62.51.51,0,0,0-.43-.2.47.47,0,0,0-.4.16.69.69,0,0,0-.13.43.6.6,0,0,0,.14.43,1.36,1.36,0,0,0,.52.34,4.61,4.61,0,0,1,1.31.76,1.36,1.36,0,0,1,.42,1.07,1.43,1.43,0,0,1-.42,1.08,1.86,1.86,0,0,1-1.13.48v.77h-.61v-.78a2,2,0,0,1-1.24-.52,1.58,1.58,0,0,1-.47-1.31v0h1.26a1,1,0,0,0,.21.69.69.69,0,0,0,.53.21.51.51,0,0,0,.42-.17A.56.56,0,0,0,15.63,12.39Z"/></svg>