<svg id="Layer_1" data-name="Layer 1" xmlns="http://www.w3.org/2000/svg" viewBox="0 0 100 100"><defs><style>.cls-1{fill:#005fff;}.cls-2{fill:#ffbc00;}</style></defs><path class="cls-1" d="M80.15,100H12.51a7.18,7.18,0,0,1-7.17-7.17V14.07A7.18,7.18,0,0,1,12.51,6.9H80.15a7.18,7.18,0,0,1,7.17,7.17V92.83A7.18,7.18,0,0,1,80.15,100ZM12.51,11.52A2.56,2.56,0,0,0,10,14.07V92.83a2.56,2.56,0,0,0,2.56,2.55H80.15a2.56,2.56,0,0,0,2.55-2.55V14.07a2.55,2.55,0,0,0-2.55-2.55Z"/><path class="cls-1" d="M71.74,40.87H20.92a3.82,3.82,0,0,1,0-7.64H71.74a3.82,3.82,0,1,1,0,7.64Zm0-3h0Z"/><path class="cls-1" d="M71.74,82.47H20.92a3.82,3.82,0,1,1,0-7.64H71.74a3.82,3.82,0,1,1,0,7.64Zm0-3h0Z"/><path class="cls-1" d="M71.74,61.67H20.92a3.82,3.82,0,0,1,0-7.64H71.74a3.82,3.82,0,1,1,0,7.64Zm0-3h0Z"/><path class="cls-2" d="M70.49,54q3.51-3.6,7-7.19a1,1,0,0,0,.35-.07l.05,0s0,0,0,0a1,1,0,0,0,.55-.57q6.93-16.6,13.84-33.22l2-4.71a1.14,1.14,0,0,0,.09-.3A6,6,0,0,0,91.07.44a6,6,0,0,0-7.79,3.21Q76.37,20.26,69.44,36.87l-2,4.71a1.08,1.08,0,0,0,.21,1.14c0,.9,0,1.79,0,2.68,0,.43,0,.85,0,1.27L67.5,54Zm22-47.69L85.81,3.54C88,.69,92.83,2.74,92.52,6.33ZM83.31,9.19l1.55-3.72,7,2.93L78.45,40.62,76.9,44.34l-7-2.92Q76.6,25.3,83.31,9.19Zm-13.5,35L75,46.34l-3,3-2.28-.94C69.76,47,69.78,45.6,69.81,44.18Z"/></svg>