<svg id="Layer_1" data-name="Layer 1" xmlns="http://www.w3.org/2000/svg" viewBox="0 0 100 100"><defs><style>.cls-1{fill:#005fff;}</style></defs><path class="cls-1" d="M77.08,4.17H22.92A22.94,22.94,0,0,0,0,27.08V72.92A22.94,22.94,0,0,0,22.92,95.83H77.08A22.94,22.94,0,0,0,100,72.92V27.08A22.94,22.94,0,0,0,77.08,4.17Zm0,12.5a10.25,10.25,0,0,1,6.85,2.63L56.85,46.38a9.89,9.89,0,0,1-13.66,0L16.1,19.3a10.29,10.29,0,0,1,6.82-2.63Zm0,66.66H22.92A10.41,10.41,0,0,1,12.5,72.92V33.4L34.33,55.23a22.15,22.15,0,0,0,31.33,0h0L87.5,33.4V72.92A10.41,10.41,0,0,1,77.08,83.33Z"/></svg>