<svg id="Layer_1" data-name="Layer 1" xmlns="http://www.w3.org/2000/svg" xmlns:xlink="http://www.w3.org/1999/xlink" viewBox="0 0 30 30"><defs><style>.cls-1{fill:url(#linear-gradient);}.cls-2{fill:url(#linear-gradient-2);}.cls-3{fill:url(#linear-gradient-3);}.cls-4{fill:url(#linear-gradient-4);}</style><linearGradient id="linear-gradient" x1="0.11" y1="29.89" x2="30.2" y2="-0.19" gradientUnits="userSpaceOnUse"><stop offset="0" stop-color="#6ba6fc"/><stop offset="0.04" stop-color="#5698fd"/><stop offset="0.11" stop-color="#3b86fd"/><stop offset="0.19" stop-color="#2578fe"/><stop offset="0.28" stop-color="#146dfe"/><stop offset="0.4" stop-color="#0965ff"/><stop offset="0.56" stop-color="#0260ff"/><stop offset="1" stop-color="#005fff"/></linearGradient><linearGradient id="linear-gradient-2" x1="12.14" y1="17.59" x2="18.13" y2="17.59" gradientUnits="userSpaceOnUse"><stop offset="0" stop-color="#005fff"/><stop offset="0.44" stop-color="#0260ff"/><stop offset="0.6" stop-color="#0965ff"/><stop offset="0.72" stop-color="#146dfe"/><stop offset="0.81" stop-color="#2578fe"/><stop offset="0.89" stop-color="#3b86fd"/><stop offset="0.96" stop-color="#5698fd"/><stop offset="1" stop-color="#6ba6fc"/></linearGradient><linearGradient id="linear-gradient-3" x1="20.31" y1="17.59" x2="26.3" y2="17.59" xlink:href="#linear-gradient-2"/><linearGradient id="linear-gradient-4" x1="3.7" y1="17.58" x2="9.69" y2="17.58" gradientUnits="userSpaceOnUse"><stop offset="0" stop-color="#ffbc00"/><stop offset="1" stop-color="#ffdf9f"/></linearGradient></defs><path class="cls-1" d="M27.66,2.2H2.35A2.62,2.62,0,0,0,0,4.8V25.2a2.62,2.62,0,0,0,2.62,2.61H27.39A2.61,2.61,0,0,0,30,25.2V4.8A2.62,2.62,0,0,0,27.66,2.2Zm1.06,23a1.32,1.32,0,0,1-1.33,1.33H2.62A1.33,1.33,0,0,1,1.28,25.2V9.43H28.72Zm0-17H1.28V4.8A1.33,1.33,0,0,1,2.35,3.5a1.18,1.18,0,0,1,.27,0H27.39a1.18,1.18,0,0,1,.27,0,1.32,1.32,0,0,1,1.06,1.3Z"/><rect class="cls-2" x="12.14" y="14.6" width="5.98" height="5.98" rx="0.96"/><rect class="cls-3" x="20.31" y="14.6" width="5.98" height="5.98" rx="0.96"/><path class="cls-4" d="M8.73,14.59H4.67a1,1,0,0,0-1,1v4.06a1,1,0,0,0,1,1H8.73a1,1,0,0,0,1-1V15.55A1,1,0,0,0,8.73,14.59Zm-.45,4a.4.4,0,0,1,0,.57.43.43,0,0,1-.28.11.44.44,0,0,1-.29-.11l-1-1-1,1a.43.43,0,0,1-.28.11.44.44,0,0,1-.29-.11.42.42,0,0,1,0-.57l1-1-1-1a.4.4,0,0,1,0-.56.4.4,0,0,1,.57,0l1,1,1-1a.4.4,0,0,1,.57,0,.39.39,0,0,1,0,.56l-1,1Z"/></svg>