<svg id="Layer_1" data-name="Layer 1" xmlns="http://www.w3.org/2000/svg" viewBox="0 0 100 100"><defs><style>.cls-1{fill:#005fff;}.cls-2{fill:#ffbc00;}</style></defs><path class="cls-1" d="M82.15,100H17.85a5.49,5.49,0,0,1-5.49-5.49v-89A5.5,5.5,0,0,1,17.85,0h64.3a5.49,5.49,0,0,1,5.49,5.49v89A5.49,5.49,0,0,1,82.15,100Zm0-96.67H17.85a2.16,2.16,0,0,0-2.16,2.16v89a2.16,2.16,0,0,0,2.16,2.16h64.3a2.16,2.16,0,0,0,2.16-2.16v-89A2.16,2.16,0,0,0,82.15,3.33Z"/><path class="cls-2" d="M41.68,54.92h-10c-.16,0-.37.06-.48,0s-.55-.39-.56-.6.28-.48.49-.66.35,0,.53,0H43.79c.67,0,1,.22,1,.67s-.29.63-.95.63C39.68,54.92,45.82,54.92,41.68,54.92Z"/><path class="cls-2" d="M44,50h2c.18,0,.4-.06.53,0s.53.38.53.57-.26.49-.47.67-.35,0-.53,0H31.67c-.2,0-.45,0-.58-.06s-.45-.44-.43-.65.3-.42.52-.56.35,0,.54,0Z"/><path class="cls-2" d="M44,47.64H31.68c-.19,0-.41,0-.54,0s-.46-.35-.48-.55a.92.92,0,0,1,.36-.64,1.17,1.17,0,0,1,.63-.08H49.39c.18,0,.42,0,.53.05s.49.44.48.65-.33.44-.56.59-.35,0-.54,0Z"/><path class="cls-1" d="M64,27.56H33.55c-1.08,0-1.17.08-1.17,1.17v3.53H28.74c-1,0-1.13.14-1.13,1.14V72c0,1.46,0,1.46,1.46,1.46h30V72.14H29V33.59H52.53c0,.19,0,.38,0,.57v4.9c0,.8.21,1,1,1H59v6.26l1,0,.39,0V39.87a1.62,1.62,0,0,0-.5-1.25q-2.93-2.88-5.81-5.81a1.73,1.73,0,0,0-1.33-.56c-6.13,0-12.23,0-18.34,0h-.67V28.91h30V47.25a12.54,12.54,0,0,1,1.34.62V28.67C65.09,27.67,65,27.56,64,27.56ZM53.91,34.71l4,4h-4Z"/><path class="cls-1" d="M65.09,47.87a12.54,12.54,0,0,0-1.34-.62,13.58,13.58,0,0,0-3.39-.84l-.39,0-1,0h-.33l-.67,0a15,15,0,0,0-1.5.17A13.57,13.57,0,0,0,52.66,72l.39.2a13,13,0,0,0,3.46,1.09,14,14,0,0,0,1.6.18l.69,0a13.57,13.57,0,0,0,6.29-25.61ZM59.82,72.14c-.33,0-.67,0-1,0s-.5,0-.73,0-.23,0-.33,0A10.94,10.94,0,0,1,56,71.86a12.28,12.28,0,0,1,.5-24,12.85,12.85,0,0,1,1.5-.2l.67,0H59q.5,0,1,.06l.39,0a11.66,11.66,0,0,1,3.39.93,11.3,11.3,0,0,1,1.34.69,12.29,12.29,0,0,1-5.27,22.8Z"/><path class="cls-2" d="M58.1,65.69A8.64,8.64,0,0,1,53.92,64l1.38-2a7,7,0,0,0,2.88,1.44V60.61c-2.55-.71-3.8-1.63-3.8-3.76v0c0-2,1.48-3.24,3.72-3.47v-1h1.84V53.4a7.1,7.1,0,0,1,3.29,1.29l-1.18,2.07a7.58,7.58,0,0,0-2.2-1v2.69c2.69.73,3.84,1.81,3.84,3.79v0c0,2-1.54,3.26-3.75,3.49v1.75H58.1Zm-1.14-9c0,.57.25.92,1.22,1.28V55.56c-.86.12-1.22.53-1.22,1.1Zm4.15,5.66c0-.59-.28-1-1.26-1.32v2.48c.83-.12,1.26-.51,1.26-1.13Z"/></svg>