<svg id="Layer_1" data-name="Layer 1" xmlns="http://www.w3.org/2000/svg" xmlns:xlink="http://www.w3.org/1999/xlink" viewBox="0 0 30 30"><defs><style>.cls-1{fill:url(#linear-gradient);}.cls-2{fill:url(#linear-gradient-2);}.cls-3{fill:url(#linear-gradient-3);}.cls-4{fill:url(#linear-gradient-4);}.cls-5{fill:url(#linear-gradient-5);}.cls-6{fill:url(#linear-gradient-6);}.cls-7{fill:url(#linear-gradient-7);}</style><linearGradient id="linear-gradient" y1="15" x2="30" y2="15" gradientUnits="userSpaceOnUse"><stop offset="0" stop-color="#005fff"/><stop offset="0.44" stop-color="#0260ff"/><stop offset="0.6" stop-color="#0965ff"/><stop offset="0.72" stop-color="#146dfe"/><stop offset="0.81" stop-color="#2578fe"/><stop offset="0.89" stop-color="#3b86fd"/><stop offset="0.96" stop-color="#5698fd"/><stop offset="1" stop-color="#6ba6fc"/></linearGradient><linearGradient id="linear-gradient-2" x1="5.51" y1="16.77" x2="17.68" y2="16.77" gradientUnits="userSpaceOnUse"><stop offset="0" stop-color="#ffbc00"/><stop offset="0.15" stop-color="#ffbd04"/><stop offset="0.31" stop-color="#ffc011"/><stop offset="0.47" stop-color="#ffc425"/><stop offset="0.64" stop-color="#ffcb42"/><stop offset="0.8" stop-color="#ffd368"/><stop offset="0.97" stop-color="#ffdd95"/><stop offset="1" stop-color="#ffdf9f"/></linearGradient><linearGradient id="linear-gradient-3" x1="5.51" y1="15.71" x2="17.68" y2="15.71" xlink:href="#linear-gradient-2"/><linearGradient id="linear-gradient-4" x1="5.51" y1="23.34" x2="17.68" y2="23.34" xlink:href="#linear-gradient-2"/><linearGradient id="linear-gradient-5" x1="20.74" y1="13.24" x2="24.08" y2="13.24" gradientUnits="userSpaceOnUse"><stop offset="0" stop-color="#ffbc00"/><stop offset="1" stop-color="#ffdf9f"/></linearGradient><linearGradient id="linear-gradient-6" x1="20.73" y1="17.83" x2="24.08" y2="17.83" xlink:href="#linear-gradient"/><linearGradient id="linear-gradient-7" x1="20.73" y1="22.41" x2="24.08" y2="22.41" xlink:href="#linear-gradient"/></defs><path class="cls-1" d="M27.66,2.2H2.35A2.62,2.62,0,0,0,0,4.8V25.2a2.62,2.62,0,0,0,2.62,2.61H27.39A2.61,2.61,0,0,0,30,25.2V4.8A2.62,2.62,0,0,0,27.66,2.2Zm1.06,23a1.32,1.32,0,0,1-1.33,1.33H2.62A1.33,1.33,0,0,1,1.28,25.2V9.43H28.72Zm0-17H1.28V4.8A1.33,1.33,0,0,1,2.35,3.5a1.18,1.18,0,0,1,.27,0H27.39a1.18,1.18,0,0,1,.27,0,1.32,1.32,0,0,1,1.06,1.3Z"/><path class="cls-2" d="M7.19,19.62V17.47a4.12,4.12,0,0,1,.3-1.59,4,4,0,0,1,2.64-2.43l.22-.07-.09-.17a1.16,1.16,0,0,1,.28-1.33,1.17,1.17,0,0,1,1.33-.18,1.14,1.14,0,0,1,.6,1.22.43.43,0,0,1-.11.21,3.36,3.36,0,0,0-1,3.6,3.33,3.33,0,0,0,2.82,2.43,7.41,7.41,0,0,0,1.25,0v.44l.3,0a1.14,1.14,0,0,1,1,1.23A1.16,1.16,0,0,1,15.63,22H7.14A1.16,1.16,0,0,1,7,19.64Zm4.15-6.36a.53.53,0,1,0-.54-.52A.52.52,0,0,0,11.34,13.26Z"/><path class="cls-3" d="M14.74,12.84a2.87,2.87,0,0,1,0,5.73,2.87,2.87,0,1,1,0-5.73Zm.31,2.55v-.23c0-.24,0-.48,0-.72a.3.3,0,0,0-.33-.32.31.31,0,0,0-.3.33v1.23a.3.3,0,0,0,.33.34c.42,0,.84,0,1.25,0a.32.32,0,0,0,.33-.33.33.33,0,0,0-.34-.3h-.93Z"/><path class="cls-4" d="M9.76,22.61h3.13a1.54,1.54,0,0,1-1.42,1.47A1.57,1.57,0,0,1,9.76,22.61Z"/><path class="cls-5" d="M24.08,12.81v1.57a.54.54,0,0,1-.54.54H21.28a.54.54,0,0,1-.54-.54V12.11a.54.54,0,0,1,.54-.54h2.26a.52.52,0,0,1,.46.26l-1.58,1.58-.58-.58a.37.37,0,1,0-.53.53l.84.84a.36.36,0,0,0,.27.11.34.34,0,0,0,.26-.11Z"/><rect class="cls-6" x="20.73" y="16.16" width="3.34" height="3.34" rx="0.54"/><rect class="cls-7" x="20.73" y="20.74" width="3.34" height="3.34" rx="0.54"/></svg>