<svg id="Layer_1" data-name="Layer 1" xmlns="http://www.w3.org/2000/svg" viewBox="0 0 30 30"><defs><style>.cls-1{fill:#fff;}.cls-2{fill:#005fff;}.cls-3{fill:#ffbc00;}</style></defs><rect class="cls-1" width="30" height="30" rx="9.87"/><path class="cls-2" d="M6.84,9.19l1.31.72,1.94,7.76-.91.72a.91.91,0,0,0-.34.71v1.36a.91.91,0,0,0,.89.91h.9a1.31,1.31,0,0,0-.07.44,1.45,1.45,0,1,0,2.89,0,1.83,1.83,0,0,0,0-.4l6,.08a1.73,1.73,0,0,0,0,.32,1.45,1.45,0,1,0,2.89,0,1.33,1.33,0,0,0,0-.28h.4a.91.91,0,0,0,.9-.89.89.89,0,0,0-.25-.64.92.92,0,0,0-.64-.28l-12-.17v0l.64-.5h.17l9.81.1a1.31,1.31,0,0,0,1.28-1l1.27-5.53a1.32,1.32,0,0,0-1-1.58h0a1.31,1.31,0,0,0-1.57,1l-1,4.5-7.72-.07L10.56,8.72a1.31,1.31,0,0,0-.64-.83l-1.82-1a1.31,1.31,0,0,0-1.26,2.3ZM7,7.75a.6.6,0,0,1,.81-.23l1.81,1a.57.57,0,0,1,.29.37l2,8a.36.36,0,0,0,.34.27l8.3.07a.35.35,0,0,0,.35-.28L22,12.17a.6.6,0,0,1,.71-.45.61.61,0,0,1,.45.71L21.83,18a.58.58,0,0,1-.58.46l-9.79-.09-.17,0a.34.34,0,0,0-.32.06l-.91.72a.34.34,0,0,0-.14.28v.56a.37.37,0,0,0,.36.36l12.34.17a.16.16,0,0,1,.13.06.18.18,0,0,1,.05.13.18.18,0,0,1-.18.18h-.94a.37.37,0,0,0-.33.19.35.35,0,0,0,0,.38.76.76,0,0,1,.14.43.73.73,0,1,1-1.45,0,.71.71,0,0,1,.16-.45.35.35,0,0,0,0-.37.35.35,0,0,0-.32-.21l-7.18-.1h0a.37.37,0,0,0-.33.22.35.35,0,0,0,.08.4.7.7,0,0,1,.22.51.73.73,0,0,1-1.46,0,.72.72,0,0,1,.23-.53.34.34,0,0,0,.09-.39.35.35,0,0,0-.33-.23l-1.53,0a.2.2,0,0,1-.19-.19V19.1A.17.17,0,0,1,9.63,19l1.09-.87a.37.37,0,0,0,.13-.37l-2-8.14a.34.34,0,0,0-.17-.22l-1.45-.8A.6.6,0,0,1,7,7.75Z"/><path class="cls-3" d="M17.16,8.27h-1.7a.93.93,0,0,0-.93.93v2.2H14a.68.68,0,0,0-.58,1.15l2.17,2.91a.86.86,0,0,0,1.43,0l2.16-2.91a.75.75,0,0,0,.13-.78.73.73,0,0,0-.7-.37h-.53V9.2A.93.93,0,0,0,17.16,8.27Zm1.46,3.85L16.45,15c-.09.11-.19.11-.27,0L14,12.12h.88a.36.36,0,0,0,.36-.36V9.2A.21.21,0,0,1,15.46,9h1.7a.21.21,0,0,1,.21.21v2.56a.36.36,0,0,0,.36.36Z"/></svg>