<svg id="Layer_1" data-name="Layer 1" xmlns="http://www.w3.org/2000/svg" viewBox="0 0 13.17 14.55"><defs><style>.cls-1{fill:#005fff;}</style></defs><path class="cls-1" d="M11.42,1.49H1.75A1.76,1.76,0,0,0,0,3.25v9.54a1.77,1.77,0,0,0,1.75,1.76h9.67a1.76,1.76,0,0,0,1.75-1.76V3.25A1.75,1.75,0,0,0,11.42,1.49Zm.51,11.3a.51.51,0,0,1-.51.52H1.75a.53.53,0,0,1-.51-.52V4.42a.51.51,0,0,1,.51-.51h9.67a.5.5,0,0,1,.51.51Z"/><rect class="cls-1" x="2.32" width="1.52" height="1.82" rx="0.28"/><rect class="cls-1" x="9.34" width="1.52" height="1.82" rx="0.28"/></svg>