<svg id="Layer_1" data-name="Layer 1" xmlns="http://www.w3.org/2000/svg" viewBox="0 0 100 100"><defs><style>.cls-1{fill:#005fff;}.cls-2{fill:#ffbc00;}</style></defs><path class="cls-1" d="M50,0a50,50,0,1,0,50,50A50.08,50.08,0,0,0,50,0Zm0,88.77A38.75,38.75,0,1,1,88.77,50,38.8,38.8,0,0,1,50,88.75Z"/><path class="cls-2" d="M50,61h0a6.57,6.57,0,0,1-6.57-6.56V28.38A6.57,6.57,0,0,1,50,21.81h0a6.57,6.57,0,0,1,6.57,6.57v26.1A6.57,6.57,0,0,1,50,61Z"/><path class="cls-2" d="M43.43,71.62A6.57,6.57,0,1,1,50,78.19,6.57,6.57,0,0,1,43.43,71.62Z"/></svg>