<svg id="Layer_1" data-name="Layer 1" xmlns="http://www.w3.org/2000/svg" viewBox="0 0 2062.52 494.9"><defs><style>.cls-1{fill:#cde3fc;}.cls-2{fill:#ffbc00;}.cls-3{fill:#005fff;}</style></defs><path class="cls-1" d="M247.45,0C110.79,0,0,110.78,0,247.45S110.79,494.9,247.45,494.9,494.9,384.12,494.9,247.45,384.12,0,247.45,0Zm0,474.05c-125.18,0-226.6-101.42-226.6-226.6s101.42-226.6,226.6-226.6,226.6,101.41,226.6,226.6S372.64,474.05,247.45,474.05Z"/><path class="cls-2" d="M418.29,226.63c-24.79-13.75-61.07-26.3-102.46-34.25l-1.27-.24c-81-15.33-150.49-7.25-155.26,18-2.51,13.21,13.12,28.5,40.15,42.28a288.5,288.5,0,0,0,39.05,16.11c-93.53-11-161.45-45.35-161.94-86.76a38.23,38.23,0,0,1,1-9,43,43,0,0,1,3.62-10c18.11-32.19,95.82-53.15,189.78-50q7.76.26,15.66.73c35.54,2.17,68.76,7.49,97.53,15.07C403.63,166,415.61,201.24,418.29,226.63Z"/><path class="cls-3" d="M76.56,268.23C101.35,282,137.63,294.53,179,302.48c.41.07.85.15,1.27.24,80.95,15.33,150.48,7.25,155.26-18,2.5-13.21-13.13-28.5-40.15-42.28a289.2,289.2,0,0,0-39.06-16.11c93.53,11,161.45,45.35,161.94,86.76a37.76,37.76,0,0,1-1,9,43,43,0,0,1-3.62,10c-18.11,32.19-95.82,53.15-189.77,50q-7.76-.25-15.67-.73c-35.54-2.17-68.76-7.49-97.53-15.07C91.22,328.88,79.24,293.62,76.56,268.23Z"/><path class="cls-2" d="M902.27,117.75a12.06,12.06,0,0,0-12,12.05v151a12.05,12.05,0,1,0,24.1,0v-151A12.07,12.07,0,0,0,902.27,117.75Z"/><path class="cls-2" d="M837,197.82l0,0a49.59,49.59,0,0,0-20.66-4.59H653.75c-13.66,0-25.31-10.17-26.54-23.15a25.7,25.7,0,0,1,25.54-28.15H840.4a12.08,12.08,0,1,0,0-24.16H654c-26.45,0-48.78,20.1-50.84,45.74a50,50,0,0,0,29,49.26,49.3,49.3,0,0,0,20.68,4.62H815.32c13.65,0,25.3,10.17,26.53,23.16a25.69,25.69,0,0,1-25.54,28.14H629.19a12.08,12.08,0,0,0,0,24.16H815.1c26.46,0,48.79-20.09,50.85-45.76A50.05,50.05,0,0,0,837,197.82Z"/><path class="cls-2" d="M1172.46,197.82l0,0a49.62,49.62,0,0,0-20.66-4.59H989.23c-13.67,0-25.32-10.17-26.54-23.15a25.7,25.7,0,0,1,25.53-28.15h187.65a12.08,12.08,0,0,0,0-24.16H989.42c-26.44,0-48.77,20.1-50.84,45.74a50,50,0,0,0,29,49.26,49.27,49.27,0,0,0,20.68,4.62h162.57c13.65,0,25.31,10.17,26.53,23.16a25.44,25.44,0,0,1-6.57,19.73,25.69,25.69,0,0,1-19,8.41H964.67a12.08,12.08,0,1,0,0,24.16h185.9c26.47,0,48.79-20.09,50.86-45.76A50.05,50.05,0,0,0,1172.46,197.82Z"/><path class="cls-3" d="M1668.31,149h84v-9.87a17.92,17.92,0,0,0-17.91-17.91H1661c-31.4,0-60.48,9.47-81.87,26.69l-3.74,3-1.11-4.68a22.13,22.13,0,0,0-21.35-17.44,6.7,6.7,0,0,0-6.69,6.69v154.8h29.1v-72.6C1575.31,170.83,1630.8,149,1668.31,149Z"/><path class="cls-3" d="M1460.37,120.75H1331.89c-47.93,0-58,29.74-58,54.68v59.7c0,24.94,10.07,54.68,58,54.68h157.27a18.62,18.62,0,0,0,18.6-18.61v-9.52H1331.89c-19,0-29.88-9.92-29.88-27.24V175.86c0-17.41,10.89-27.33,29.88-27.33H1460c17.74,0,27.89,9.07,27.89,24.9s-9.7,23.93-28.89,23.93H1342.21v9.33a12.15,12.15,0,0,0,12.12,12.14H1460c39,0,56.33-14.62,56.33-47.39C1516.37,137.33,1498,120.75,1460.37,120.75Z"/><path class="cls-3" d="M1989.93,120.75H1843.52c-41.27,0-61.32,23.53-61.32,71.93V377.14h29.1V194.33c0-32.1,12.71-45.8,42.5-45.8h132.47c32.36,0,46.8,17.51,46.8,56.74,0,39-14.44,56.41-46.8,56.41H1868.72a16.23,16.23,0,0,0-16.2,16.23v11.9h137.41c46.82,0,72.59-30,72.59-84.54S2036.75,120.75,1989.93,120.75Z"/><path class="cls-3" d="M1353.14,323.51q8.16,8.73,8.15,22.45t-8.15,22.45q-8.15,8.73-23.38,8.73h-24.33q-15.23,0-23.38-8.73T1273.89,346q0-13.72,8.16-22.45t23.38-8.73h24.33Q1345,314.78,1353.14,323.51Zm-10.55,8.73q-5-5.34-14.35-5.34H1307q-9.36,0-14.35,5.34t-5,13.72q0,8.37,5,13.72T1307,365h21.29q9.36,0,14.35-5.35t5-13.72Q1347.57,337.59,1342.59,332.24Z"/><path class="cls-3" d="M1442.36,346q0-8.46-5-13.76T1423,326.9h-18q-9.35,0-14.34,5.3t-5,13.76v24.32a6.87,6.87,0,1,1-13.72,0V346q0-13.72,8.2-22.45t23.34-8.73h21q15.14,0,23.34,8.73t8.19,22.45v24.32a6.87,6.87,0,1,1-13.72,0Z"/><path class="cls-3" d="M1475.86,368.41q-8.2-8.73-8.2-22.45V321.64a6.87,6.87,0,1,1,13.72,0V346q0,8.46,5,13.77t14.34,5.3h35.46q6.15,0,6.15,6.06t-6.15,6.05h-37Q1484,377.14,1475.86,368.41Z"/><path class="cls-3" d="M1552.29,316.56a6.86,6.86,0,0,1,5.08-1.78,6.72,6.72,0,0,1,5,1.78,7,7,0,0,1,1.73,5.08v48.64a7,7,0,0,1-1.73,5.08,6.72,6.72,0,0,1-5,1.78,6.21,6.21,0,0,1-6.86-6.86V321.64A6.91,6.91,0,0,1,1552.29,316.56Z"/><path class="cls-3" d="M1647.09,346q0-8.46-5-13.76t-14.35-5.3h-18q-9.36,0-14.35,5.3t-5,13.76v24.32a6.87,6.87,0,1,1-13.72,0V346q0-13.72,8.2-22.45t23.34-8.73h21q15.15,0,23.34,8.73t8.2,22.45v24.32a6.87,6.87,0,1,1-13.72,0Z"/><path class="cls-3" d="M1692.3,330.41a16.82,16.82,0,0,0-6.37,9.49h53q6.15,0,6.14,6.06t-6.14,6.06h-53a16.82,16.82,0,0,0,6.37,9.49q4.76,3.51,12.25,3.52h41.51q6.15,0,6.15,6.06t-6.15,6.05h-43q-15.24,0-23.39-8.73T1671.49,346q0-13.72,8.15-22.45t23.39-8.73h43q6.15,0,6.15,6.06t-6.15,6.06h-41.51Q1697.07,326.9,1692.3,330.41Z"/></svg>