<?xml version="1.0" encoding="utf-8"?>
<!-- Generator: Adobe Illustrator 26.0.0, SVG Export Plug-In . SVG Version: 6.00 Build 0)  -->
<svg version="1.1" id="Layer_1" xmlns="http://www.w3.org/2000/svg" xmlns:xlink="http://www.w3.org/1999/xlink" x="0px" y="0px"
	 viewBox="0 0 100 100" style="enable-background:new 0 0 100 100;" xml:space="preserve">
<style type="text/css">
	.st0{fill:#FFFFFF;}
	.st1{fill:none;stroke:#005FFF;stroke-width:3.68;stroke-miterlimit:10;}
	.st2{clip-path:url(#SVGID_00000013897774485721716060000016985451271217256865_);}
	.st3{fill:none;stroke:#FFBC00;stroke-width:3.68;stroke-miterlimit:10;}
</style>
<g>
	<path class="st0" d="M67.1,100H32.9C14.7,100,0,85.3,0,67.1V32.9C0,14.7,14.7,0,32.9,0h34.2C85.3,0,100,14.7,100,32.9v34.2
		C100,85.3,85.3,100,67.1,100z"/>
	<g>
		<g id="Layer_1_00000131334215126947669060000002212254347337671319_">
			<path class="st1" d="M53,31.7l4.8,9.6l10.6,1.5c1.6,0.2,2.7,1.7,2.4,3.2c-0.1,0.7-0.4,1.3-0.9,1.7l-7.7,7.4L64,65.7
				c0.3,1.6-0.8,3-2.3,3.3c-0.6,0.1-1.3,0-1.8-0.3l-9.4-5l-9.4,5c-1.4,0.7-3.1,0.2-3.9-1.2c-0.3-0.6-0.4-1.2-0.3-1.8l1.8-10.5
				L31,47.8c-1.1-1.1-1.2-2.9-0.1-4.1c0.4-0.5,1-0.7,1.6-0.8l10.6-1.5l4.7-9.6c0.7-1.4,2.4-2,3.8-1.3C52.3,30.7,52.7,31.2,53,31.7z"
				/>
			<g>
				<defs>
					<ellipse id="SVGID_1_" cx="61.4" cy="41" rx="19" ry="18.6"/>
				</defs>
				<clipPath id="SVGID_00000115497671790686802530000002089336130704735626_">
					<use xlink:href="#SVGID_1_"  style="overflow:visible;"/>
				</clipPath>
				<g style="clip-path:url(#SVGID_00000115497671790686802530000002089336130704735626_);">
					<path class="st3" d="M53,31.7l4.8,9.6l10.6,1.5c1.6,0.2,2.7,1.7,2.4,3.2c-0.1,0.7-0.4,1.3-0.9,1.7l-7.7,7.4L64,65.7
						c0.3,1.6-0.8,3-2.3,3.3c-0.6,0.1-1.3,0-1.8-0.3l-9.4-5l-9.4,5c-1.4,0.7-3.1,0.2-3.9-1.2c-0.3-0.6-0.4-1.2-0.3-1.8l1.8-10.5
						L31,47.8c-1.1-1.1-1.2-2.9-0.1-4.1c0.4-0.5,1-0.7,1.6-0.8l10.6-1.5l4.7-9.6c0.7-1.4,2.4-2,3.8-1.3C52.3,30.7,52.7,31.2,53,31.7
						z"/>
				</g>
			</g>
		</g>
	</g>
</g>
</svg>
