<svg id="Layer_1" data-name="Layer 1" xmlns="http://www.w3.org/2000/svg" viewBox="0 0 100 100"><defs><style>.cls-1{fill:#005fff;}.cls-2{fill:#ffbc00;}.cls-3{fill:none;stroke:#ffbc00;stroke-linecap:round;stroke-linejoin:round;stroke-width:1.5px;}</style></defs><path class="cls-1" d="M82.15,100H17.85a5.49,5.49,0,0,1-5.49-5.49v-89A5.5,5.5,0,0,1,17.85,0h64.3a5.49,5.49,0,0,1,5.49,5.49v89A5.49,5.49,0,0,1,82.15,100Zm0-96.67H17.85a2.16,2.16,0,0,0-2.16,2.16v89a2.16,2.16,0,0,0,2.16,2.16h64.3a2.16,2.16,0,0,0,2.16-2.16v-89A2.16,2.16,0,0,0,82.15,3.33Z"/><path class="cls-2" d="M41.68,52.05h-10c-.16,0-.37.06-.48,0s-.55-.38-.56-.59.28-.49.49-.66.35,0,.53,0H43.79c.67,0,1,.22,1,.68s-.29.63-.95.63Z"/><path class="cls-2" d="M44,47.12h2c.18,0,.4,0,.53,0s.53.37.53.56-.26.49-.47.67-.35,0-.53,0H31.67c-.2,0-.45,0-.58-.06s-.45-.43-.43-.64.3-.43.52-.57.35,0,.54,0Z"/><path class="cls-2" d="M44,44.77H31.68c-.18,0-.41.06-.54,0s-.46-.35-.48-.55a.9.9,0,0,1,.36-.63,1.17,1.17,0,0,1,.63-.09H49.39c.18,0,.42,0,.53,0s.49.44.48.66-.33.43-.56.58-.35,0-.54,0Z"/><path class="cls-1" d="M59.85,35.76Q56.93,32.88,54,30a1.71,1.71,0,0,0-1.33-.56c-6,0-11.89,0-17.83,0H28.73c-1,0-1.12.14-1.12,1.14V69.16c0,1.45,0,1.45,1.45,1.45h30V69.28H29V30.73H52.52c0,.19,0,.38,0,.57v4.9c0,.8.2,1,1,1H59v6.26l1,0,.39,0V37A1.62,1.62,0,0,0,59.85,35.76Zm-6,.1v-4l4,4Z"/><path class="cls-1" d="M65.09,45a12.54,12.54,0,0,0-1.34-.62,13.61,13.61,0,0,0-3.38-.84l-.39,0-1,0h-.33l-.68,0a14.44,14.44,0,0,0-1.49.17,13.57,13.57,0,0,0-3.86,25.48c.13.07.26.14.4.2a12.92,12.92,0,0,0,3.46,1.09,13.81,13.81,0,0,0,1.59.18l.7,0A13.57,13.57,0,0,0,65.09,45ZM59.82,69.27c-.33,0-.67,0-1,0s-.5,0-.74,0l-.33,0A10.82,10.82,0,0,1,56,69a12.28,12.28,0,0,1,.5-24,12.4,12.4,0,0,1,1.49-.2l.68,0H59l1,.06.39.05a11.59,11.59,0,0,1,3.38.93,11.3,11.3,0,0,1,1.34.69,12.28,12.28,0,0,1-5.27,22.8Z"/><line class="cls-3" x1="53.57" y1="57.03" x2="64.04" y2="57.03"/><line class="cls-3" x1="58.81" y1="51.8" x2="58.81" y2="62.27"/></svg>