<svg id="Layer_1" data-name="Layer 1" xmlns="http://www.w3.org/2000/svg" viewBox="0 0 100 100"><defs><style>.cls-1{fill:#005fff;}.cls-2{fill:#ffbc00;}</style></defs><path class="cls-1" d="M50,100a50,50,0,1,1,50-50A50.06,50.06,0,0,1,50,100ZM50,7.49A42.51,42.51,0,1,0,92.51,50,42.56,42.56,0,0,0,50,7.49Z"/><path class="cls-2" d="M73.13,53.75H26.87a3.75,3.75,0,0,1,0-7.5H73.13a3.75,3.75,0,0,1,0,7.5Z"/><path class="cls-2" d="M50,76.88a3.75,3.75,0,0,1-3.75-3.75V26.87a3.75,3.75,0,0,1,7.5,0V73.13A3.75,3.75,0,0,1,50,76.88Z"/></svg>