<svg id="Layer_1" data-name="Layer 1" xmlns="http://www.w3.org/2000/svg" xmlns:xlink="http://www.w3.org/1999/xlink" viewBox="0 0 30 30"><defs><style>.cls-1{fill:#fff;}.cls-2{fill:url(#linear-gradient);}.cls-3{fill:url(#radial-gradient);}</style><linearGradient id="linear-gradient" x1="6.21" y1="20.6" x2="23.79" y2="20.6" gradientUnits="userSpaceOnUse"><stop offset="0" stop-color="#005fff"/><stop offset="1" stop-color="#6ba6fc"/></linearGradient><radialGradient id="radial-gradient" cx="15" cy="8.67" r="5.17" gradientUnits="userSpaceOnUse"><stop offset="0.6" stop-color="#ffbc00"/><stop offset="0.76" stop-color="#ffbc02"/><stop offset="0.82" stop-color="#ffbe09"/><stop offset="0.87" stop-color="#ffc114"/><stop offset="0.9" stop-color="#ffc425"/><stop offset="0.93" stop-color="#ffc93b"/><stop offset="0.95" stop-color="#ffcf57"/><stop offset="0.98" stop-color="#ffd676"/><stop offset="1" stop-color="#ffde9b"/><stop offset="1" stop-color="#ffdf9f"/></radialGradient></defs><rect class="cls-1" width="30" height="30" rx="5.54"/><path class="cls-2" d="M23.79,20.06v3.22c-.22.19-.44.37-.67.54l-.24.17-.12.08-.46.31-.25.15a13.54,13.54,0,0,1-6.74,2h-.62a13.57,13.57,0,0,1-6.74-2l-.25-.15-.43-.29L7.12,24l-.24-.17c-.23-.17-.45-.35-.67-.54V20.06a3.35,3.35,0,0,1,.19-1.13,5.84,5.84,0,0,1,5.84-4.22.5.5,0,0,1,.36.14L14.74,17a.37.37,0,0,0,.52,0l2.14-2.15a.5.5,0,0,1,.36-.14,5.84,5.84,0,0,1,5.84,4.22A3.35,3.35,0,0,1,23.79,20.06Z"/><path class="cls-3" d="M15,3.5a5.17,5.17,0,1,0,5.17,5.17A5.17,5.17,0,0,0,15,3.5Zm2,4.06H15.7a1.11,1.11,0,0,0-.17-.66.54.54,0,0,0-.45-.21.51.51,0,0,0-.43.18.71.71,0,0,0-.14.45.64.64,0,0,0,.15.45,1.52,1.52,0,0,0,.55.36,4.9,4.9,0,0,1,1.39.8A1.45,1.45,0,0,1,17,10.07a1.54,1.54,0,0,1-.44,1.14,2,2,0,0,1-1.2.5v.82h-.64v-.82a2.23,2.23,0,0,1-1.31-.55A1.74,1.74,0,0,1,13,9.77v0h1.33a1,1,0,0,0,.22.72.77.77,0,0,0,.57.22.53.53,0,0,0,.44-.17.63.63,0,0,0,.15-.44.75.75,0,0,0-.15-.5A1.63,1.63,0,0,0,15,9.23a4.66,4.66,0,0,1-1.39-.77,1.46,1.46,0,0,1-.44-1.15,1.53,1.53,0,0,1,.46-1.13,2,2,0,0,1,1.24-.52V4.81h.64v.87a1.8,1.8,0,0,1,1.16.6,1.82,1.82,0,0,1,.41,1.26Z"/></svg>