<svg id="Layer_1" data-name="Layer 1" xmlns="http://www.w3.org/2000/svg" viewBox="0 0 100 100"><defs><style>.cls-1{fill:#005fff;}.cls-2{fill:#ffbc00;}</style></defs><path class="cls-1" d="M35,54.15h2.3c.49,0,.66.17.67.65V58c0,.49-.19.67-.7.67H32.72c-.52,0-.69-.17-.69-.7V54.86c0-.56.15-.7.72-.7Zm-1.9,1.08v2.38H36.9V55.23Z"/><path class="cls-1" d="M35,53.58c-.77,0-1.53,0-2.3,0-.49,0-.66-.16-.66-.65V49.69c0-.46.18-.64.64-.64h4.64c.48,0,.66.18.67.66V53c0,.46-.19.63-.65.63C36.55,53.59,35.77,53.58,35,53.58Zm1.91-3.45H33.12V52.5H36.9Z"/><path class="cls-1" d="M42,54.15h2.3c.48,0,.66.18.66.66,0,1.06,0,2.13,0,3.2,0,.47-.19.67-.65.67-1.55,0-3.09,0-4.64,0-.47,0-.66-.19-.66-.67v-3.2c0-.49.18-.66.66-.66ZM40.05,57.6h3.81V55.23H40.05Z"/><path class="cls-1" d="M48.94,54.15h2.3c.49,0,.65.16.65.65V58c0,.5-.18.67-.69.67H46.65c-.52,0-.7-.18-.7-.7,0-1.05,0-2.09,0-3.13,0-.54.16-.7.69-.7Zm1.88,1.08H47v2.38h3.79Z"/><path class="cls-1" d="M41.91,63.77H39.69c-.54,0-.71-.17-.71-.69V59.91c0-.5.19-.68.69-.68h4.59c.48,0,.67.19.67.66q0,1.62,0,3.24c0,.45-.18.63-.64.64Zm1.94-1.07V60.31H40.06V62.7Z"/><path class="cls-1" d="M41.93,53.58c-.75,0-1.51,0-2.26,0-.51,0-.69-.17-.69-.67v-3.2c0-.48.19-.66.67-.66h4.63c.46,0,.65.19.65.64,0,1.09,0,2.18,0,3.28,0,.42-.19.61-.63.61C43.51,53.59,42.72,53.58,41.93,53.58Zm1.93-3.45h-3.8v2.38h3.8Z"/><path class="cls-1" d="M48.89,53.58c-.76,0-1.53,0-2.3,0-.46,0-.64-.17-.64-.63,0-1.08,0-2.17,0-3.25,0-.47.18-.65.67-.65h4.59c.51,0,.68.17.68.68v3.2c0,.49-.17.65-.66.65C50.45,53.59,49.67,53.58,48.89,53.58ZM47,50.12v2.39h3.79V50.12Z"/><path class="cls-1" d="M35,63.77H32.69c-.5,0-.66-.17-.66-.66V59.87c0-.45.19-.64.65-.64h4.63c.48,0,.66.19.67.67v3.2c0,.5-.18.67-.7.67Zm1.92-3.46H33.12v2.38H36.9Z"/><path class="cls-1" d="M48.93,63.77H46.6c-.47,0-.65-.17-.65-.63,0-1.1,0-2.19,0-3.28,0-.44.19-.62.62-.63h4.71c.42,0,.61.19.61.6q0,1.68,0,3.36c0,.4-.18.57-.58.58ZM47,62.69H50.8V60.31H47Z"/><path class="cls-1" d="M64,33.8H60V31.6c0-.65-.2-.85-.84-.85H55.9c-.59,0-.8.21-.8.81v2.22H47.77v-.54c0-.6,0-1.2,0-1.8a.61.61,0,0,0-.65-.69c-1.19,0-2.39,0-3.58,0-.43,0-.65.26-.65.73,0,.76,0,1.53,0,2.3H35.54V32c0-1.16,0-1.22-1.22-1.22H31.53c-.68,0-.87.19-.87.85v2.2h-.41c-1.19,0-2.37,0-3.56,0a1,1,0,0,0-.92.39V68.87a1,1,0,0,0,.92.39h37A9.86,9.86,0,0,1,59.36,68H27V44.82H63.63V49.3l.61,0,.64,0V34.72C64.88,34,64.7,33.8,64,33.8Zm-.32,9.75H27v-1.8H61.8V40.54H27V35h3.63v3h1.22V32h2.45v6h1.22v-3h7.33v3h1.23V32h2.45v6.06h1.21v-3h7.34v3h1.23V32h2.43v6.07H60v-3h3.66Z"/><path class="cls-1" d="M61.48,46H29.09c-.69,0-.88.19-.88.88v19c0,.69.19.88.89.88q13.47,0,26.93,0a1.24,1.24,0,0,0,.94-.39l.14-.14a9.36,9.36,0,0,1-1.4-1.8v1.08H29.45V47.28H61.19v2.47c.33-.1.66-.19,1-.26h0l.24,0V47C62.43,46.19,62.27,46,61.48,46Z"/><path class="cls-2" d="M63.77,63.07A5.72,5.72,0,0,1,61,62l.9-1.33a4.58,4.58,0,0,0,1.9.94V59.73c-1.68-.46-2.5-1.07-2.5-2.46v0c0-1.28,1-2.13,2.44-2.28v-.68H65V55a4.72,4.72,0,0,1,2.16.85l-.78,1.36a5,5,0,0,0-1.44-.69v1.77c1.77.48,2.53,1.19,2.53,2.49v0c0,1.31-1,2.14-2.47,2.3v1.15H63.77ZM63,57.16c0,.38.16.61.8.84V56.42c-.57.08-.8.35-.8.72Zm2.72,3.71c0-.38-.19-.62-.83-.86v1.63c.55-.08.83-.34.83-.74Z"/><path class="cls-2" d="M68.85,50.43a9.66,9.66,0,0,0-1-.46,10.32,10.32,0,0,0-2.49-.62l-.29,0c-.22,0-.46,0-.7,0h-.74a9.73,9.73,0,0,0-1.1.13,10,10,0,0,0-2.84,18.73l.3.14a9.28,9.28,0,0,0,2.54.8,11,11,0,0,0,1.17.14h.51a10,10,0,0,0,4.62-18.82ZM64.94,67.86c-.23,0-.47,0-.71,0a4.26,4.26,0,0,1-.51,0l-.24,0a7.9,7.9,0,0,1-1.2-.19,8.62,8.62,0,0,1,.35-16.86,9,9,0,0,1,1-.14h.71c.23,0,.45,0,.68,0l.27,0a8.57,8.57,0,0,1,2.37.65,10.46,10.46,0,0,1,.94.49,8.62,8.62,0,0,1-3.7,16Z"/><path class="cls-1" d="M82.15,100H17.85a5.49,5.49,0,0,1-5.49-5.49v-89A5.5,5.5,0,0,1,17.85,0h64.3a5.49,5.49,0,0,1,5.49,5.49v89A5.49,5.49,0,0,1,82.15,100Zm0-96.67H17.85a2.16,2.16,0,0,0-2.16,2.16v89a2.16,2.16,0,0,0,2.16,2.16h64.3a2.16,2.16,0,0,0,2.16-2.16v-89A2.16,2.16,0,0,0,82.15,3.33Z"/></svg>