<svg id="Layer_1" data-name="Layer 1" xmlns="http://www.w3.org/2000/svg" viewBox="0 0 100 100"><defs><style>.cls-1{fill:#005fff;}.cls-2{fill:#ffbc00;}</style></defs><path class="cls-1" d="M64.65,96.32H5.09A5.09,5.09,0,0,1,0,91.24V8.76A5.09,5.09,0,0,1,5.09,3.68H64.65a5.09,5.09,0,0,1,5.09,5.08v20l-1.6-.06A21.72,21.72,0,0,0,49.47,62.59h0a21.69,21.69,0,0,0,18.68,9.55l1.59-.05V91.24A5.09,5.09,0,0,1,64.65,96.32ZM5.09,6.76a2,2,0,0,0-2,2V91.24a2,2,0,0,0,2,2H64.65a2,2,0,0,0,2-2v-16a24.81,24.81,0,0,1,0-49.6V8.76a2,2,0,0,0-2-2Z"/><rect class="cls-2" x="12.32" y="62.47" width="23.19" height="3.08"/><rect class="cls-2" x="12.32" y="53.13" width="20.85" height="3.08"/><rect class="cls-2" x="12.32" y="71.88" width="28.19" height="3.08"/><rect class="cls-2" x="12.32" y="81.3" width="37.36" height="3.08"/><path class="cls-2" d="M24.08,31.7a5,5,0,1,1,5-5A5,5,0,0,1,24.08,31.7Zm0-8.65a3.65,3.65,0,1,0,3.65,3.65A3.65,3.65,0,0,0,24.08,23.05Z"/><path class="cls-2" d="M16.27,38.62v-.07a7.78,7.78,0,0,1,3.21-6.32,6.7,6.7,0,0,0,9.2,0,7.77,7.77,0,0,1,3.22,6.32v.07a12,12,0,0,0,1.29-1.18A9.12,9.12,0,0,0,29,30.78l-.49-.31-.38.43a5.31,5.31,0,0,1-8,0l-.39-.43-.48.31A9.09,9.09,0,0,0,15,37.44,11.07,11.07,0,0,0,16.27,38.62Z"/><path class="cls-1" d="M24.08,14.91a13.85,13.85,0,0,0-5.44,26.56,13.91,13.91,0,0,0,10.89,0,14.09,14.09,0,0,0,3.71-2.36,13.83,13.83,0,0,0-9.16-24.2Zm9.11,22.53a12,12,0,0,1-1.29,1.18,12.69,12.69,0,0,1-2.38,1.49,12.55,12.55,0,0,1-10.88,0,12.94,12.94,0,0,1-2.37-1.49A11.07,11.07,0,0,1,15,37.44a12.6,12.6,0,1,1,18.21,0Z"/><path class="cls-1" d="M67.48,75.24a24.82,24.82,0,1,1,17.29-7A23.73,23.73,0,0,1,81.39,71,23.14,23.14,0,0,1,78.2,72.8a24.2,24.2,0,0,1-10,2.43ZM67.37,28.7a21.73,21.73,0,1,0,.78,43.45A21.38,21.38,0,0,0,76.88,70a19.94,19.94,0,0,0,2.79-1.59,21.27,21.27,0,0,0,3-2.4h0A21.72,21.72,0,0,0,68.15,28.71Z"/><path class="cls-1" d="M94.72,95.4a5.29,5.29,0,0,1-4.39-2.33L76.27,72.28l2.55-1.73,14.06,20.8a2.21,2.21,0,0,0,3.66-2.48L82.42,68,85,66.26,99.09,87.14a5.29,5.29,0,0,1-4.37,8.26Z"/></svg>