<svg id="Layer_1" data-name="Layer 1" xmlns="http://www.w3.org/2000/svg" viewBox="0 0 100 100"><defs><style>.cls-1{fill:#005fff;}.cls-2{fill:none;stroke:#ffbc00;stroke-linecap:round;stroke-linejoin:round;stroke-width:1.5px;}</style></defs><path class="cls-1" d="M50,34.47a5.12,5.12,0,1,1,5.12-5.12A5.13,5.13,0,0,1,50,34.47Zm0-8.85a3.73,3.73,0,1,0,3.73,3.73A3.73,3.73,0,0,0,50,25.62Z"/><path class="cls-1" d="M58.92,44.47H41.08L40.94,44A9.41,9.41,0,0,1,45,33.52l.5-.31.39.44a5.45,5.45,0,0,0,8.18,0l.39-.44.5.31A9.41,9.41,0,0,1,59.06,44ZM42.16,43.08H57.84a7.75,7.75,0,0,0,.16-1.6A8,8,0,0,0,54.71,35a6.84,6.84,0,0,1-9.42,0A8,8,0,0,0,42,41.48,7.75,7.75,0,0,0,42.16,43.08Z"/><path class="cls-1" d="M50,68.55a3.7,3.7,0,1,1,3.7-3.69A3.7,3.7,0,0,1,50,68.55Zm0-6.39a2.7,2.7,0,1,0,2.69,2.7A2.7,2.7,0,0,0,50,62.16Z"/><path class="cls-1" d="M56.44,75.77H43.56l-.1-.37a6.64,6.64,0,0,1-.24-1.78,6.76,6.76,0,0,1,3.18-5.75l.36-.22L47,68A3.93,3.93,0,0,0,53,68l.29-.31.36.22a6.76,6.76,0,0,1,3.18,5.75,6.59,6.59,0,0,1-.24,1.78Zm-12.1-1H55.66a5.54,5.54,0,0,0,.12-1.15A5.72,5.72,0,0,0,53.4,69a5,5,0,0,1-6.8,0,5.72,5.72,0,0,0-2.38,4.67A5.54,5.54,0,0,0,44.34,74.77Z"/><path class="cls-1" d="M29,68.55a3.7,3.7,0,1,1,3.7-3.69A3.69,3.69,0,0,1,29,68.55Zm0-6.39a2.7,2.7,0,1,0,2.69,2.7A2.7,2.7,0,0,0,29,62.16Z"/><path class="cls-1" d="M35.48,75.77H22.6l-.1-.37a6.64,6.64,0,0,1-.24-1.78,6.76,6.76,0,0,1,3.18-5.75l.37-.22.28.31A3.93,3.93,0,0,0,32,68l.28-.31.36.22a6.76,6.76,0,0,1,3.18,5.75,6.59,6.59,0,0,1-.24,1.78Zm-12.1-1H34.7a5.54,5.54,0,0,0,.12-1.15A5.72,5.72,0,0,0,32.44,69a5,5,0,0,1-6.8,0,5.75,5.75,0,0,0-2.38,4.67A5.54,5.54,0,0,0,23.38,74.77Z"/><path class="cls-1" d="M71,68.55a3.7,3.7,0,1,1,3.69-3.69A3.7,3.7,0,0,1,71,68.55Zm0-6.39a2.7,2.7,0,1,0,2.69,2.7A2.69,2.69,0,0,0,71,62.16Z"/><path class="cls-1" d="M77.4,75.77H64.52l-.1-.37a6.64,6.64,0,0,1-.24-1.78,6.76,6.76,0,0,1,3.18-5.75l.36-.22L68,68a3.93,3.93,0,0,0,5.91,0l.29-.31.36.22a6.76,6.76,0,0,1,3.18,5.75,6.59,6.59,0,0,1-.24,1.78Zm-12.1-1H76.62a5.54,5.54,0,0,0,.12-1.15A5.75,5.75,0,0,0,74.36,69a5,5,0,0,1-6.8,0,5.72,5.72,0,0,0-2.38,4.67A5.54,5.54,0,0,0,65.3,74.77Z"/><polyline class="cls-2" points="50 57.98 50 50.47 50 46.93"/><polyline class="cls-2" points="29.04 57.98 29.04 50.47 70.96 50.47 70.96 57.98"/><path class="cls-1" d="M82.15,100H17.85a5.49,5.49,0,0,1-5.49-5.49v-89A5.5,5.5,0,0,1,17.85,0h64.3a5.49,5.49,0,0,1,5.49,5.49v89A5.49,5.49,0,0,1,82.15,100Zm0-96.67H17.85a2.16,2.16,0,0,0-2.16,2.16v89a2.16,2.16,0,0,0,2.16,2.16h64.3a2.16,2.16,0,0,0,2.16-2.16v-89A2.16,2.16,0,0,0,82.15,3.33Z"/></svg>