<svg id="Layer_1" data-name="Layer 1" xmlns="http://www.w3.org/2000/svg" viewBox="0 0 100 100"><defs><style>.cls-1{fill:#005fff;}.cls-2{fill:#ffbc00;}</style></defs><path class="cls-1" d="M82.15,100H17.85a5.49,5.49,0,0,1-5.49-5.49v-89A5.5,5.5,0,0,1,17.85,0h64.3a5.49,5.49,0,0,1,5.49,5.49v89A5.49,5.49,0,0,1,82.15,100Zm0-96.67H17.85a2.16,2.16,0,0,0-2.16,2.16v89a2.16,2.16,0,0,0,2.16,2.16h64.3a2.16,2.16,0,0,0,2.16-2.16v-89A2.16,2.16,0,0,0,82.15,3.33Z"/><path class="cls-1" d="M64,33.8H60V31.6c0-.65-.2-.85-.84-.85H55.9c-.59,0-.8.21-.8.81v2.22H47.77v-.54c0-.6,0-1.2,0-1.8a.61.61,0,0,0-.65-.69c-1.19,0-2.39,0-3.58,0-.43,0-.65.26-.65.73,0,.76,0,1.53,0,2.3H35.54V32c0-1.16,0-1.22-1.22-1.22H31.53c-.68,0-.87.19-.87.85v2.2h-.41c-1.19,0-2.37,0-3.56,0a1,1,0,0,0-.92.39V68.87a1,1,0,0,0,.92.39h37A9.86,9.86,0,0,1,59.36,68H27V44.82H63.63V49.3l.61,0,.64,0V34.72C64.88,34,64.7,33.8,64,33.8Zm-.32,9.75H27v-1.8H61.8V40.54H27V35h3.63v3h1.22V32h2.45v6h1.22v-3h7.33v3h1.23V32h2.45v6.06h1.21v-3h7.34v3h1.23V32h2.43v6.07H60v-3h3.66Z"/><path class="cls-1" d="M61.48,46H29.09c-.69,0-.88.19-.88.88v19c0,.69.19.88.89.88q13.47,0,26.93,0a1.24,1.24,0,0,0,.94-.39l.14-.14a9.36,9.36,0,0,1-1.4-1.8v1.08H29.45V47.28H61.19v2.47c.33-.1.66-.19,1-.26h0l.24,0V47C62.43,46.19,62.27,46,61.48,46Z"/><path class="cls-1" d="M35.9,55h-3a.72.72,0,0,1-.72-.72v-3a.72.72,0,0,1,.72-.72h3a.72.72,0,0,1,.72.72v3A.72.72,0,0,1,35.9,55Zm-3-3.78a0,0,0,0,0,0,0v3a0,0,0,0,0,0,0h3a0,0,0,0,0,.05,0v-3a0,0,0,0,0-.05,0Z"/><path class="cls-2" d="M48.54,51.45h-8a.34.34,0,0,1,0-.67h8a.34.34,0,1,1,0,.67Z"/><path class="cls-2" d="M51.17,53.06H40.55a.34.34,0,0,1,0-.67H51.17a.34.34,0,0,1,0,.67Z"/><path class="cls-2" d="M51.17,54.67H40.55a.34.34,0,0,1,0-.67H51.17a.34.34,0,0,1,0,.67Z"/><path class="cls-1" d="M35.9,62.49h-3a.72.72,0,0,1-.72-.72v-3a.72.72,0,0,1,.72-.72h3a.72.72,0,0,1,.72.72v3A.72.72,0,0,1,35.9,62.49Zm-3-3.78a.05.05,0,0,0,0,0v3a.06.06,0,0,0,0,.06h3a.06.06,0,0,0,.05-.06v-3a.05.05,0,0,0-.05,0Z"/><path class="cls-2" d="M48.54,59h-8a.34.34,0,0,1,0-.67h8a.34.34,0,1,1,0,.67Z"/><path class="cls-2" d="M51.17,60.56H40.55a.34.34,0,0,1,0-.67H51.17a.34.34,0,0,1,0,.67Z"/><path class="cls-2" d="M51.17,62.17H40.55a.34.34,0,0,1,0-.67H51.17a.34.34,0,0,1,0,.67Z"/><path class="cls-2" d="M68.85,50.43a9.66,9.66,0,0,0-1-.46,10.32,10.32,0,0,0-2.49-.62l-.29,0c-.22,0-.46,0-.7,0h-.74a9.73,9.73,0,0,0-1.1.13,10,10,0,0,0-2.84,18.73l.3.14a9.28,9.28,0,0,0,2.54.8,11,11,0,0,0,1.17.14h.51a10,10,0,0,0,4.62-18.82ZM64.94,67.86c-.23,0-.47,0-.71,0a4.26,4.26,0,0,1-.51,0l-.24,0a7.9,7.9,0,0,1-1.2-.19,8.62,8.62,0,0,1,.35-16.86,9,9,0,0,1,1-.14h.71c.23,0,.45,0,.68,0l.27,0a8.57,8.57,0,0,1,2.37.65,10.46,10.46,0,0,1,.94.49,8.62,8.62,0,0,1-3.7,16Z"/><polygon class="cls-2" points="62.2 63.3 58.94 59.75 60.05 58.74 62.27 61.16 68.5 55.24 69.53 56.32 62.2 63.3"/></svg>