<svg id="Layer_1" data-name="Layer 1" xmlns="http://www.w3.org/2000/svg" xmlns:xlink="http://www.w3.org/1999/xlink" viewBox="0 0 30 30"><defs><style>.cls-1{fill:url(#linear-gradient);}.cls-2{fill:url(#linear-gradient-2);}.cls-3{fill:url(#linear-gradient-3);}.cls-4{fill:url(#linear-gradient-4);}</style><linearGradient id="linear-gradient" x1="0.02" y1="29.98" x2="29.52" y2="0.48" gradientUnits="userSpaceOnUse"><stop offset="0" stop-color="#6ba6fc"/><stop offset="0.04" stop-color="#5698fd"/><stop offset="0.11" stop-color="#3b86fd"/><stop offset="0.19" stop-color="#2578fe"/><stop offset="0.28" stop-color="#146dfe"/><stop offset="0.4" stop-color="#0965ff"/><stop offset="0.56" stop-color="#0260ff"/><stop offset="1" stop-color="#005fff"/></linearGradient><linearGradient id="linear-gradient-2" x1="3.84" y1="17.57" x2="9.82" y2="17.57" gradientUnits="userSpaceOnUse"><stop offset="0" stop-color="#ffbc00"/><stop offset="1" stop-color="#ffdf9f"/></linearGradient><linearGradient id="linear-gradient-3" x1="12.01" y1="17.58" x2="17.99" y2="17.58" gradientUnits="userSpaceOnUse"><stop offset="0" stop-color="#005fff"/><stop offset="0.44" stop-color="#0260ff"/><stop offset="0.6" stop-color="#0965ff"/><stop offset="0.72" stop-color="#146dfe"/><stop offset="0.81" stop-color="#2578fe"/><stop offset="0.89" stop-color="#3b86fd"/><stop offset="0.96" stop-color="#5698fd"/><stop offset="1" stop-color="#6ba6fc"/></linearGradient><linearGradient id="linear-gradient-4" x1="20.18" y1="17.58" x2="26.16" y2="17.58" xlink:href="#linear-gradient-3"/></defs><path class="cls-1" d="M27.66,2.2H2.35A2.62,2.62,0,0,0,0,4.8V25.2a2.62,2.62,0,0,0,2.62,2.61H27.39A2.61,2.61,0,0,0,30,25.2V4.8A2.62,2.62,0,0,0,27.66,2.2Zm1.06,23a1.32,1.32,0,0,1-1.33,1.33H2.62A1.33,1.33,0,0,1,1.28,25.2V9.43H28.72Zm0-17H1.28V4.8A1.33,1.33,0,0,1,2.35,3.5a1.18,1.18,0,0,1,.27,0H27.39a1.18,1.18,0,0,1,.27,0,1.32,1.32,0,0,1,1.06,1.3Z"/><path class="cls-2" d="M9.82,16.79v2.82a1,1,0,0,1-1,1h-4a1,1,0,0,1-1-1V15.54a1,1,0,0,1,1-1H8.86a.93.93,0,0,1,.82.47L6.85,17.87l-1-1a.67.67,0,0,0-.95,1l1.51,1.5a.61.61,0,0,0,.48.2.57.57,0,0,0,.46-.2Z"/><rect class="cls-3" x="12.01" y="14.59" width="5.98" height="5.98" rx="0.96"/><rect class="cls-4" x="20.18" y="14.59" width="5.98" height="5.98" rx="0.96"/></svg>