<svg id="Layer_1" data-name="Layer 1" xmlns="http://www.w3.org/2000/svg" viewBox="0 0 100 100"><defs><style>.cls-1{fill:#005fff;}.cls-2,.cls-3{fill:none;stroke:#ffbc00;stroke-miterlimit:10;}.cls-2{stroke-width:4.47px;}.cls-3{stroke-width:1.12px;}</style></defs><path class="cls-1" d="M94.44,28.78V72.63H87V63.41H13v9.22H5.56V28.78H13v8H87v-8h7.41m-7.09-15.5H82.56V32.36H17.44V13.28H12.65v11H1.09V77.1H17.44V67.88H82.56V77.1H98.91V24.31H87.35v-11Z"/><path class="cls-1" d="M76.13,4.47v21H23.87v-21H76.13M80.6,0H19.41V30H80.6V0Z"/><path class="cls-2" d="M22.31,100H77.69V72.9H22.31Z"/><rect class="cls-3" x="27.2" y="79.54" width="45.6" height="2.3"/><rect class="cls-3" x="27.2" y="85.29" width="45.6" height="2.31"/><rect class="cls-3" x="27.2" y="91.17" width="45.6" height="2.3"/></svg>