<svg id="Layer_1" data-name="Layer 1" xmlns="http://www.w3.org/2000/svg" viewBox="0 0 100 100"><defs><style>.cls-1{fill:#005fff;}</style></defs><path class="cls-1" d="M50,100A50,50,0,1,0,0,50,50.06,50.06,0,0,0,50,100ZM36.22,86.53a39.1,39.1,0,0,1-24.3-27.84l-.26-1.11H28.05l.11.77a78.91,78.91,0,0,0,9.17,26.89l1.21,2.17ZM60.71,58.65A72.39,72.39,0,0,1,50.77,84L50,85.21,49.23,84a72.51,72.51,0,0,1-9.94-25.35l-.2-1.07H60.91Zm27.37,0A39.11,39.11,0,0,1,63.79,86.53l-2.33.88,1.21-2.17a79,79,0,0,0,9.17-26.89l.11-.77H88.34ZM63.79,13.47a39,39,0,0,1,25,32.19l.12,1H72.34l-.07-.83a76.61,76.61,0,0,0-9.59-31.08l-1.23-2.18ZM38.72,45.66A70.15,70.15,0,0,1,49.24,16L50,14.8l.77,1.2A70.14,70.14,0,0,1,61.28,45.66l.12,1H38.6Zm-2.5-32.19,2.33-.89-1.22,2.18a76.47,76.47,0,0,0-9.6,31.08l-.07.83H11.05l.12-1A39,39,0,0,1,36.22,13.47Z"/></svg>