<svg id="Layer_1" data-name="Layer 1" xmlns="http://www.w3.org/2000/svg" viewBox="0 0 100 100"><defs><style>.cls-1{fill:#005fff;}.cls-2{fill:#ffbc00;}</style></defs><path class="cls-1" d="M72.05,100H15a4.88,4.88,0,0,1-4.87-4.87v-79A4.88,4.88,0,0,1,15,11.22l39.67,0-.94,2.08a17.13,17.13,0,0,0-1.49,7.06A17.38,17.38,0,0,0,75,36.85l1.94-.63V95.13A4.88,4.88,0,0,1,72.05,100ZM50.2,14.15,15,14.17a1.92,1.92,0,0,0-1.91,1.92v79A1.92,1.92,0,0,0,15,97.05H72.05A1.92,1.92,0,0,0,74,95.13V40.18a20.09,20.09,0,0,1-4.39.48A20.36,20.36,0,0,1,50.2,14.15Z"/><path class="cls-1" d="M69.58,40.66A20.35,20.35,0,0,1,49.25,20.34,20.09,20.09,0,0,1,51,12.07,20.35,20.35,0,1,1,69.58,40.66ZM69.58,3A17.41,17.41,0,0,0,53.69,13.28a17.13,17.13,0,0,0-1.49,7.06A17.38,17.38,0,1,0,69.58,3Z"/><path class="cls-2" d="M66,19.48a19.08,19.08,0,0,1-2.29,0,1.39,1.39,0,0,1-1-.57,1.19,1.19,0,0,1,.15-1c1.94-2.61,3.91-5.19,5.88-7.76a1,1,0,0,1,1.67,0q3,3.89,5.92,7.82a1.18,1.18,0,0,1,.12,1,1.44,1.44,0,0,1-1,.54,20.75,20.75,0,0,1-2.25,0v10.1a4.87,4.87,0,0,1,0,.54.91.91,0,0,1-1,.93.87.87,0,0,1-.94-.94c0-.77,0-1.54,0-2.31V19.47c-.39,0-.73,0-1.06,0a.91.91,0,0,1-.94-1,.89.89,0,0,1,.94-1c1.08,0,2.17,0,3.44,0l-4.08-5.38L65.5,17.54h1.08c1,0,1.31.31,1.31,1.29,0,3.66,0,7.31,0,11,0,.82-.36,1.27-1,1.26S66,30.64,66,29.83q0-4.77,0-9.54Z"/><rect class="cls-2" x="21.9" y="67.56" width="43.04" height="2.95"/><rect class="cls-2" x="21.9" y="58.6" width="43.04" height="2.95"/><rect class="cls-2" x="21.9" y="76.58" width="43.04" height="2.95"/><rect class="cls-2" x="21.9" y="85.6" width="28.82" height="2.95"/><path class="cls-1" d="M33.17,22.49A12.75,12.75,0,1,0,45.92,35.24,12.76,12.76,0,0,0,33.17,22.49Zm7.7,20.1a10.25,10.25,0,0,1-1.09,1,10,10,0,0,1-2,1.26,10.6,10.6,0,0,1-9.2,0,10,10,0,0,1-2-1.26,10.15,10.15,0,0,1-1.09-1,10.65,10.65,0,1,1,15.4,0Z"/><path class="cls-2" d="M32.59,40a7.32,7.32,0,0,1-3.45-1.39L30.28,37a5.66,5.66,0,0,0,2.38,1.18V35.82c-2.1-.58-3.14-1.34-3.14-3.1v0c0-1.6,1.23-2.67,3.07-2.86V29h1.52v.89a5.89,5.89,0,0,1,2.71,1.07l-1,1.71A6.4,6.4,0,0,0,34,31.79V34c2.22.6,3.17,1.49,3.17,3.13v0c0,1.63-1.27,2.68-3.09,2.87v1.45H32.59Zm-.94-7.43c0,.47.21.76,1,1v-2c-.72.1-1,.43-1,.9Zm3.42,4.66c0-.48-.23-.79-1-1.08v2c.69-.1,1-.43,1-.94Z"/></svg>