<svg id="Layer_1" data-name="Layer 1" xmlns="http://www.w3.org/2000/svg" viewBox="0 0 30 30"><defs><style>.cls-1{fill:#fff;}.cls-2{fill:#ffbc00;}.cls-3{fill:#005fff;}</style></defs><rect class="cls-1" width="30" height="30" rx="9.87"/><path class="cls-2" d="M11.33,17.27H9A1.07,1.07,0,0,0,7.9,18.35v.37A1.08,1.08,0,0,0,9,19.8h2.35a1.08,1.08,0,0,0,1.08-1.08v-.37A1.08,1.08,0,0,0,11.33,17.27Zm.24,1.43a.26.26,0,0,1-.27.26H9a.26.26,0,0,1-.26-.26v-.33A.26.26,0,0,1,9,18.11h2.3a.26.26,0,0,1,.27.26Z"/><path class="cls-3" d="M10.86,17.27l.84.07V7.71a1.32,1.32,0,0,0-1.32-1.32H9.93A1.33,1.33,0,0,0,8.61,7.71v9.63l.84-.07m0,2.53-.84-.07v2.56a1.33,1.33,0,0,0,1.32,1.32h.45a1.32,1.32,0,0,0,1.32-1.32V19.73l-.84.07M9.93,7.23h.45a.49.49,0,0,1,.48.48v9.56H9.45V7.71A.49.49,0,0,1,9.93,7.23Zm.45,15.54H9.93a.49.49,0,0,1-.48-.48V19.8h1.41v2.49A.49.49,0,0,1,10.38,22.77Z"/><path class="cls-3" d="M15.62,13.46l.84.09V7.71a1.32,1.32,0,0,0-1.32-1.32h-.45a1.32,1.32,0,0,0-1.32,1.32v5.81l.84-.06m0,2.54-.84-.06v6.35a1.32,1.32,0,0,0,1.32,1.32h.45a1.32,1.32,0,0,0,1.32-1.32V15.91l-.84.09m-.93-8.77h.45a.49.49,0,0,1,.48.48v5.75H14.21V7.71A.49.49,0,0,1,14.69,7.23Zm.45,15.54h-.45a.49.49,0,0,1-.48-.48V16h1.41v6.29A.49.49,0,0,1,15.14,22.77Z"/><path class="cls-3" d="M20.55,9.75l.84.07V7.71a1.33,1.33,0,0,0-1.32-1.32h-.45A1.32,1.32,0,0,0,18.3,7.71V9.82l.84-.07m0,2.54-.84-.08V22.29a1.32,1.32,0,0,0,1.32,1.32h.45a1.33,1.33,0,0,0,1.32-1.32V12.21l-.84.08m-.93-5.06h.45a.49.49,0,0,1,.48.48v2H19.14v-2A.49.49,0,0,1,19.62,7.23Zm.45,15.54h-.45a.49.49,0,0,1-.48-.48v-10h1.41v10A.49.49,0,0,1,20.07,22.77Z"/><path class="cls-2" d="M16,13.46H13.69a1.07,1.07,0,0,0-1.07,1.08v.38A1.07,1.07,0,0,0,13.69,16H16a1.08,1.08,0,0,0,1.08-1.08v-.38A1.08,1.08,0,0,0,16,13.46Zm.24,1.44a.26.26,0,0,1-.26.26h-2.3a.27.27,0,0,1-.27-.26v-.34a.27.27,0,0,1,.27-.26H16a.26.26,0,0,1,.26.26Z"/><path class="cls-2" d="M21,9.75H18.66a1.07,1.07,0,0,0-1.07,1.08v.38a1.07,1.07,0,0,0,1.07,1.08H21a1.08,1.08,0,0,0,1.08-1.08v-.38A1.08,1.08,0,0,0,21,9.75Zm.24,1.43a.26.26,0,0,1-.27.26h-2.3a.27.27,0,0,1-.27-.26v-.33a.27.27,0,0,1,.27-.26H21a.27.27,0,0,1,.27.26Z"/></svg>