<svg id="Layer_1" data-name="Layer 1" xmlns="http://www.w3.org/2000/svg" xmlns:xlink="http://www.w3.org/1999/xlink" viewBox="0 0 30 30"><defs><style>.cls-1{fill:#fff;}.cls-2{fill:url(#radial-gradient);}.cls-3{fill:url(#radial-gradient-2);}</style><radialGradient id="radial-gradient" cx="15" cy="15" r="8.28" gradientUnits="userSpaceOnUse"><stop offset="0.6" stop-color="#ffbc00"/><stop offset="0.76" stop-color="#ffbc02"/><stop offset="0.82" stop-color="#ffbe09"/><stop offset="0.87" stop-color="#ffc114"/><stop offset="0.9" stop-color="#ffc425"/><stop offset="0.93" stop-color="#ffc93b"/><stop offset="0.95" stop-color="#ffcf57"/><stop offset="0.98" stop-color="#ffd676"/><stop offset="1" stop-color="#ffde9b"/><stop offset="1" stop-color="#ffdf9f"/></radialGradient><radialGradient id="radial-gradient-2" cx="15" cy="15" r="11.5" gradientUnits="userSpaceOnUse"><stop offset="0.85" stop-color="#005fff"/><stop offset="0.92" stop-color="#0260ff"/><stop offset="0.94" stop-color="#0965ff"/><stop offset="0.96" stop-color="#146dfe"/><stop offset="0.97" stop-color="#2578fe"/><stop offset="0.98" stop-color="#3b86fd"/><stop offset="0.99" stop-color="#5698fd"/><stop offset="1" stop-color="#6ba6fc"/></radialGradient></defs><rect class="cls-1" width="30" height="30" rx="5.54"/><path class="cls-2" d="M23.28,15A8.28,8.28,0,1,1,15,6.72,8.28,8.28,0,0,1,23.28,15Z"/><path class="cls-3" d="M15,3.5A11.5,11.5,0,1,0,26.5,15,11.5,11.5,0,0,0,15,3.5Zm0,21A9.5,9.5,0,1,1,24.5,15,9.51,9.51,0,0,1,15,24.5Z"/><path class="cls-1" d="M15.88,16.84a.94.94,0,0,0-.21-.65,2.06,2.06,0,0,0-.71-.45,6.14,6.14,0,0,1-1.82-1,1.92,1.92,0,0,1-.57-1.51,2,2,0,0,1,.6-1.47,2.56,2.56,0,0,1,1.61-.68V10h.85v1.14a2.28,2.28,0,0,1,2,2.44v0H15.91a1.38,1.38,0,0,0-.22-.86.72.72,0,0,0-.59-.28.67.67,0,0,0-.56.23,1,1,0,0,0-.18.6.87.87,0,0,0,.19.59,2,2,0,0,0,.73.46,6.45,6.45,0,0,1,1.8,1.05,1.89,1.89,0,0,1,.58,1.49,2,2,0,0,1-.58,1.49,2.6,2.6,0,0,1-1.56.66v1.07h-.84V19A2.83,2.83,0,0,1,13,18.26a2.32,2.32,0,0,1-.66-1.82l0,0h1.74a1.32,1.32,0,0,0,.29.95,1,1,0,0,0,.74.29.75.75,0,0,0,.58-.22A.88.88,0,0,0,15.88,16.84Z"/></svg>