<svg id="Layer_1" data-name="Layer 1" xmlns="http://www.w3.org/2000/svg" viewBox="0 0 30 30"><defs><style>.cls-1{fill:#005fff;}.cls-2{fill:#ffbc00;}</style></defs><path class="cls-1" d="M25.9,30H4.1a2.32,2.32,0,0,1-2.31-2.31V2.31A2.32,2.32,0,0,1,4.1,0H25.9a2.32,2.32,0,0,1,2.31,2.31V27.69A2.32,2.32,0,0,1,25.9,30ZM4.1,1.49a.82.82,0,0,0-.82.82V27.69a.82.82,0,0,0,.82.82H25.9a.82.82,0,0,0,.82-.82V2.31a.82.82,0,0,0-.82-.82Z"/><path class="cls-2" d="M23.36,10.15H6.64a.52.52,0,0,0,0,1H23.36A.52.52,0,0,0,23.36,10.15Z"/><path class="cls-2" d="M23.36,14.89H6.64a.52.52,0,0,0,0,1H23.36A.52.52,0,0,0,23.36,14.89Z"/><path class="cls-2" d="M23.36,19.63H6.64a.52.52,0,0,0,0,1H23.36A.52.52,0,0,0,23.36,19.63Z"/><path class="cls-2" d="M23.36,24.37H6.64a.52.52,0,0,0,0,1H23.36A.52.52,0,0,0,23.36,24.37Z"/><path class="cls-2" d="M8.41,5.93A1.34,1.34,0,1,0,7.07,7.26,1.34,1.34,0,0,0,8.41,5.93Zm-2.12,0a.78.78,0,1,1,.78.78A.78.78,0,0,1,6.29,5.93Z"/><path class="cls-2" d="M11,7.26A1.34,1.34,0,1,0,9.7,5.93,1.34,1.34,0,0,0,11,7.26Zm0-2.11a.78.78,0,1,1-.78.78A.78.78,0,0,1,11,5.15Z"/><path class="cls-2" d="M15,7.26a1.34,1.34,0,1,0-1.33-1.33A1.33,1.33,0,0,0,15,7.26Zm0-2.11a.78.78,0,1,1-.78.78A.78.78,0,0,1,15,5.15Z"/><path class="cls-2" d="M19,7.26a1.34,1.34,0,1,0-1.33-1.33A1.34,1.34,0,0,0,19,7.26Zm0-2.11a.78.78,0,1,1-.78.78A.77.77,0,0,1,19,5.15Z"/><path class="cls-2" d="M21.59,5.93a1.34,1.34,0,1,0,1.34-1.34A1.34,1.34,0,0,0,21.59,5.93Zm1.34-.78a.78.78,0,1,1-.78.78A.78.78,0,0,1,22.93,5.15Z"/></svg>