<svg id="Layer_1" data-name="Layer 1" xmlns="http://www.w3.org/2000/svg" viewBox="0 0 100 100"><defs><style>.cls-1{fill:#005fff;}</style></defs><path class="cls-1" d="M89.08,60.76l-.32-1.15h0L82.54,37.2A34.24,34.24,0,0,0,55.15,12.54V5.15a5.16,5.16,0,0,0-10.31,0v7.16A34.47,34.47,0,0,0,15.74,39L10.68,61.76A19.7,19.7,0,0,0,25.62,85.24a19,19,0,0,0,4.26.47h2.18l.19.66a18.88,18.88,0,0,0,36.27,0l.19-.66h1.4A19.7,19.7,0,0,0,89.79,66,19.93,19.93,0,0,0,89.08,60.76ZM78.3,72.24a10.24,10.24,0,0,1-8.14,4.06H29.88A10.28,10.28,0,0,1,19.62,66a10.34,10.34,0,0,1,.24-2.22L24.93,41a25,25,0,0,1,48.55-1.26L80,63.26A10.22,10.22,0,0,1,78.3,72.24Z"/></svg>