<svg id="Layer_1" data-name="Layer 1" xmlns="http://www.w3.org/2000/svg" viewBox="0 0 100 100"><defs><style>.cls-1{fill:#005fff;}.cls-2{fill:none;stroke:#ffbc00;stroke-linecap:round;stroke-miterlimit:10;stroke-width:1.5px;}</style></defs><path class="cls-1" d="M82.15,100H17.85a5.49,5.49,0,0,1-5.49-5.49v-89A5.5,5.5,0,0,1,17.85,0h64.3a5.49,5.49,0,0,1,5.49,5.49v89A5.49,5.49,0,0,1,82.15,100Zm0-96.67H17.85a2.16,2.16,0,0,0-2.16,2.16v89a2.16,2.16,0,0,0,2.16,2.16h64.3a2.16,2.16,0,0,0,2.16-2.16v-89A2.16,2.16,0,0,0,82.15,3.33Z"/><line class="cls-2" x1="49.78" y1="24.37" x2="68.65" y2="24.37"/><line class="cls-2" x1="49.78" y1="28.17" x2="74.86" y2="28.17"/><line class="cls-2" x1="49.78" y1="31.97" x2="74.86" y2="31.97"/><path class="cls-1" d="M32.66,24.15A4.12,4.12,0,1,1,36.78,20,4.12,4.12,0,0,1,32.66,24.15Zm0-7A2.91,2.91,0,1,0,35.57,20,2.91,2.91,0,0,0,32.66,17.12Z"/><path class="cls-1" d="M39.32,32.73H26a.6.6,0,0,1-.58-.44,7.33,7.33,0,0,1-.27-2,7.49,7.49,0,0,1,3.53-6.37.61.61,0,0,1,.78.12,4.28,4.28,0,0,0,6.42,0,.6.6,0,0,1,.77-.12,7.49,7.49,0,0,1,3.53,6.37,7.33,7.33,0,0,1-.27,2A.6.6,0,0,1,39.32,32.73ZM26.47,31.52H38.84A6.06,6.06,0,0,0,39,30.31a6.28,6.28,0,0,0-2.56-5.07,5.48,5.48,0,0,1-7.49,0,6.28,6.28,0,0,0-2.56,5.07A6.06,6.06,0,0,0,26.47,31.52Z"/><line class="cls-2" x1="49.78" y1="50.05" x2="68.65" y2="50.05"/><line class="cls-2" x1="49.78" y1="53.85" x2="74.86" y2="53.85"/><line class="cls-2" x1="49.78" y1="57.64" x2="74.86" y2="57.64"/><path class="cls-1" d="M32.66,49.83a4.12,4.12,0,1,1,4.12-4.12A4.13,4.13,0,0,1,32.66,49.83Zm0-7a2.91,2.91,0,1,0,2.91,2.91A2.91,2.91,0,0,0,32.66,42.8Z"/><path class="cls-1" d="M39.32,58.41H26a.6.6,0,0,1-.58-.44,7.39,7.39,0,0,1-.27-2,7.46,7.46,0,0,1,3.53-6.37.61.61,0,0,1,.78.11,4.28,4.28,0,0,0,6.42,0,.6.6,0,0,1,.77-.11A7.46,7.46,0,0,1,40.17,56a7.39,7.39,0,0,1-.27,2A.6.6,0,0,1,39.32,58.41ZM26.47,57.2H38.84A6.13,6.13,0,0,0,39,56a6.26,6.26,0,0,0-2.56-5.07,5.51,5.51,0,0,1-7.49,0A6.25,6.25,0,0,0,26.35,56,6.13,6.13,0,0,0,26.47,57.2Z"/><line class="cls-2" x1="49.78" y1="75.72" x2="68.65" y2="75.72"/><line class="cls-2" x1="49.78" y1="79.52" x2="74.86" y2="79.52"/><line class="cls-2" x1="49.78" y1="83.32" x2="74.86" y2="83.32"/><path class="cls-1" d="M32.66,75.5a4.12,4.12,0,1,1,4.12-4.11A4.12,4.12,0,0,1,32.66,75.5Zm0-7a2.91,2.91,0,1,0,2.91,2.91A2.91,2.91,0,0,0,32.66,68.48Z"/><path class="cls-1" d="M39.32,84.08H26a.6.6,0,0,1-.58-.44,7.33,7.33,0,0,1-.27-2,7.49,7.49,0,0,1,3.53-6.37.61.61,0,0,1,.78.12,4.28,4.28,0,0,0,6.42,0,.6.6,0,0,1,.77-.12,7.49,7.49,0,0,1,3.53,6.37,7.33,7.33,0,0,1-.27,2A.6.6,0,0,1,39.32,84.08Zm-12.85-1.2H38.84a6.29,6.29,0,0,0-2.44-6.29,5.48,5.48,0,0,1-7.49,0,6.29,6.29,0,0,0-2.44,6.29Z"/></svg>