<?xml version="1.0" encoding="utf-8"?>
<!-- Generator: Adobe Illustrator 26.0.0, SVG Export Plug-In . SVG Version: 6.00 Build 0)  -->
<svg version="1.1" id="Layer_1" xmlns="http://www.w3.org/2000/svg" xmlns:xlink="http://www.w3.org/1999/xlink" x="0px" y="0px"
	 viewBox="0 0 100 100" style="enable-background:new 0 0 100 100;" xml:space="preserve">
<style type="text/css">
	.st0{fill:#005FFF;}
	.st1{fill:#FFFFFF;}
</style>
<circle class="st0" cx="50" cy="50" r="50"/>
<path class="st1" d="M51,50.3h-2.1c-1.1,0-2,0.8-2.2,1.8h1.6c0.1-0.2,0.3-0.3,0.6-0.3H51c0.2,0,0.4,0.1,0.5,0.2h1.6
	C52.9,51,52,50.3,51,50.3z"/>
<path class="st1" d="M71.7,53.2c-3.1-2.7-7.7-3.8-13.7-3.4c6.8-4.6,8.5-13.8,3.9-20.5c-4.6-6.8-13.8-8.5-20.5-3.9
	s-8.5,13.8-3.9,20.5c0.9,1.3,2,2.5,3.4,3.5c-4.3-0.4-13.5-0.1-16.2,9.5c0,0.1,0,0.2,0,0.3V76c0,0.6,0.5,1.1,1.1,1.1c0,0,0,0,0,0
	h48.6c0.6,0,1.1-0.5,1.1-1.1c0,0,0,0,0,0V60C75.1,57.4,73.8,54.9,71.7,53.2z M37,37.6c0-7,5.7-12.7,12.7-12.7s12.7,5.7,12.7,12.7
	c0,7-5.6,12.6-12.6,12.7H51c1,0,2,0.7,2.2,1.7l0,0c0.9-0.2,1.8-0.5,2.6-0.9L53,56.5l0,0l-0.9,1.6l0,0L50,62.4l-1.6-3.2l0,0l-1-2l0,0
	l-2.9-5.8c0.7,0.3,1.5,0.5,2.3,0.7c0.2-1.1,1.1-1.8,2.2-1.8h0.7C42.7,50.3,37,44.6,37,37.6z M73.2,74.9H26.8V59.4
	c2.8-9.4,12.9-8,15.3-7.5L49,65.3c0.2,0.4,0.6,0.6,1,0.7c0.4,0,0.8-0.2,1-0.6l6.8-13.3c5.6-0.5,9.7,0.5,12.5,2.8
	c1.6,1.3,2.6,3.1,2.9,5.2V74.9z"/>
<path class="st1" d="M53.3,52.5c0-0.2,0-0.4-0.1-0.6l0,0c-0.3-1-1.1-1.7-2.2-1.7H49c-1.1,0-2,0.8-2.2,1.8c0,0.1,0,0.3,0,0.5
	c0,0.9,0.5,1.7,1.3,2l-0.7,2.6l0,0l1,2l1.1-4.3h1.1l1.6,3.3l0.9-1.6l0,0l-1-1.9C52.8,54.2,53.3,53.4,53.3,52.5z M51.1,53.3h-2.2
	c-0.4,0-0.7-0.3-0.7-0.8c0-0.4,0.3-0.7,0.7-0.8h2.2c0.2,0,0.4,0.1,0.5,0.2c0.2,0.1,0.2,0.3,0.2,0.5C51.8,53,51.5,53.3,51.1,53.3z"/>
</svg>
