<svg id="Layer_1" data-name="Layer 1" xmlns="http://www.w3.org/2000/svg" xmlns:xlink="http://www.w3.org/1999/xlink" viewBox="0 0 30 30"><defs><style>.cls-1{fill:url(#linear-gradient);}.cls-2{fill:#fff;}.cls-3{fill:url(#linear-gradient-2);}.cls-4{fill:url(#linear-gradient-3);}.cls-5{fill:url(#radial-gradient);}.cls-6{fill:url(#radial-gradient-2);}</style><linearGradient id="linear-gradient" x1="0.2" y1="29.9" x2="29.45" y2="0.46" gradientUnits="userSpaceOnUse"><stop offset="0" stop-color="#6ba6fc"/><stop offset="0.01" stop-color="#68a4fc"/><stop offset="0.12" stop-color="#488ffd"/><stop offset="0.24" stop-color="#2d7dfe"/><stop offset="0.37" stop-color="#1970fe"/><stop offset="0.52" stop-color="#0b66ff"/><stop offset="0.7" stop-color="#0361ff"/><stop offset="1" stop-color="#005fff"/></linearGradient><linearGradient id="linear-gradient-2" x1="14.99" y1="22.33" x2="15.01" y2="25.48" gradientUnits="userSpaceOnUse"><stop offset="0" stop-color="#ffdf9f"/><stop offset="0.03" stop-color="#ffdd95"/><stop offset="0.2" stop-color="#ffd368"/><stop offset="0.36" stop-color="#ffcb42"/><stop offset="0.53" stop-color="#ffc425"/><stop offset="0.69" stop-color="#ffc011"/><stop offset="0.85" stop-color="#ffbd04"/><stop offset="1" stop-color="#ffbc00"/></linearGradient><linearGradient id="linear-gradient-3" x1="52.84" y1="32.64" x2="52.84" y2="24.6" gradientTransform="translate(-38.42 33.14) rotate(-45)" gradientUnits="userSpaceOnUse"><stop offset="0" stop-color="#6ba6fc"/><stop offset="0.08" stop-color="#599afd"/><stop offset="0.24" stop-color="#3985fd"/><stop offset="0.42" stop-color="#2074fe"/><stop offset="0.59" stop-color="#0e68ff"/><stop offset="0.78" stop-color="#0361ff"/><stop offset="1" stop-color="#005fff"/></linearGradient><radialGradient id="radial-gradient" cx="50.6" cy="19.08" r="3.95" gradientTransform="translate(-37.51 -9.15)" gradientUnits="userSpaceOnUse"><stop offset="0.6" stop-color="#ffbc00"/><stop offset="0.76" stop-color="#ffbc02"/><stop offset="0.82" stop-color="#ffbe09"/><stop offset="0.87" stop-color="#ffc114"/><stop offset="0.9" stop-color="#ffc425"/><stop offset="0.93" stop-color="#ffc93b"/><stop offset="0.95" stop-color="#ffcf57"/><stop offset="0.98" stop-color="#ffd676"/><stop offset="1" stop-color="#ffde9b"/><stop offset="1" stop-color="#ffdf9f"/></radialGradient><radialGradient id="radial-gradient-2" cx="52.84" cy="20" r="5.48" gradientTransform="translate(-38.42 33.14) rotate(-45)" gradientUnits="userSpaceOnUse"><stop offset="0.85" stop-color="#005fff"/><stop offset="0.92" stop-color="#0260ff"/><stop offset="0.94" stop-color="#0965ff"/><stop offset="0.96" stop-color="#146dfe"/><stop offset="0.97" stop-color="#2578fe"/><stop offset="0.98" stop-color="#3b86fd"/><stop offset="0.99" stop-color="#5698fd"/><stop offset="1" stop-color="#6ba6fc"/></radialGradient></defs><path class="cls-1" d="M24.89,0H5.11A2.61,2.61,0,0,0,2.5,2.61V27.39A2.61,2.61,0,0,0,5.11,30H24.89a2.61,2.61,0,0,0,2.61-2.61V2.61A2.61,2.61,0,0,0,24.89,0Zm.17,26.11a1.44,1.44,0,0,1-1.42,1.45H6.36a1.44,1.44,0,0,1-1.42-1.45V3.89A1.44,1.44,0,0,1,6.36,2.44H23.64a1.44,1.44,0,0,1,1.42,1.45Z"/><path class="cls-2" d="M25.46,3.45v23.1A1.5,1.5,0,0,1,24,28.06H6a1.5,1.5,0,0,1-1.48-1.51V3.45A1.5,1.5,0,0,1,6,1.94H24A1.5,1.5,0,0,1,25.46,3.45Z"/><path class="cls-3" d="M20.32,25.55H9.68a1.6,1.6,0,1,1,0-3.2H20.32a1.6,1.6,0,1,1,0,3.2Z"/><path class="cls-4" d="M18.74,14.45l-1.31-1.31L16.3,14.28l1.31,1.3-.29.29,3,3A1.21,1.21,0,0,0,22,17.17l-3-3Z"/><path class="cls-5" d="M17,9.93A3.95,3.95,0,1,1,13.09,6,3.93,3.93,0,0,1,17,9.93Z"/><path class="cls-6" d="M9.21,6.05a5.48,5.48,0,1,0,7.75,0A5.48,5.48,0,0,0,9.21,6.05Zm7.08,7.08a4.53,4.53,0,1,1,0-6.4A4.54,4.54,0,0,1,16.29,13.13Z"/><path class="cls-2" d="M13.5,10.81a.46.46,0,0,0-.09-.31,1,1,0,0,0-.34-.22,3.05,3.05,0,0,1-.87-.48.91.91,0,0,1-.27-.72.93.93,0,0,1,.28-.7A1.23,1.23,0,0,1,13,8.06V7.52h.4v.55a1.05,1.05,0,0,1,.72.37,1.11,1.11,0,0,1,.26.79h-.84a.61.61,0,0,0-.11-.41.34.34,0,0,0-.28-.14.3.3,0,0,0-.26.11.46.46,0,0,0-.09.29.43.43,0,0,0,.09.28,1,1,0,0,0,.35.22,3.09,3.09,0,0,1,.86.5.92.92,0,0,1,.27.71,1,1,0,0,1-.27.71,1.2,1.2,0,0,1-.75.31v.51h-.4v-.51a1.3,1.3,0,0,1-.81-.34,1.09,1.09,0,0,1-.32-.86v0h.83a.62.62,0,0,0,.14.45.48.48,0,0,0,.35.14.35.35,0,0,0,.28-.11A.4.4,0,0,0,13.5,10.81Z"/></svg>