<svg id="Layer_1" data-name="Layer 1" xmlns="http://www.w3.org/2000/svg" xmlns:xlink="http://www.w3.org/1999/xlink" viewBox="0 0 30 30"><defs><style>.cls-1{fill:url(#linear-gradient);}.cls-2{fill:url(#linear-gradient-2);}.cls-3{fill:url(#linear-gradient-3);}.cls-4{fill:url(#linear-gradient-4);}.cls-5{fill:url(#linear-gradient-5);}.cls-6{fill:url(#radial-gradient);}.cls-7{fill:url(#radial-gradient-2);}.cls-8{fill:#fff;}</style><linearGradient id="linear-gradient" x1="14.94" y1="29.21" x2="15.02" y2="22.34" gradientUnits="userSpaceOnUse"><stop offset="0" stop-color="#005fff"/><stop offset="0.44" stop-color="#0260ff"/><stop offset="0.6" stop-color="#0965ff"/><stop offset="0.72" stop-color="#146dfe"/><stop offset="0.81" stop-color="#2578fe"/><stop offset="0.89" stop-color="#3b86fd"/><stop offset="0.96" stop-color="#5698fd"/><stop offset="1" stop-color="#6ba6fc"/></linearGradient><linearGradient id="linear-gradient-2" x1="22.49" y1="13.24" x2="27.5" y2="13.24" xlink:href="#linear-gradient"/><linearGradient id="linear-gradient-3" x1="2.5" y1="13.24" x2="7.5" y2="13.24" gradientUnits="userSpaceOnUse"><stop offset="0" stop-color="#6ba6fc"/><stop offset="0.04" stop-color="#5698fd"/><stop offset="0.11" stop-color="#3b86fd"/><stop offset="0.19" stop-color="#2578fe"/><stop offset="0.28" stop-color="#146dfe"/><stop offset="0.4" stop-color="#0965ff"/><stop offset="0.56" stop-color="#0260ff"/><stop offset="1" stop-color="#005fff"/></linearGradient><linearGradient id="linear-gradient-4" x1="14.99" y1="19.27" x2="15.01" y2="18.26" gradientUnits="userSpaceOnUse"><stop offset="0" stop-color="#ffbc00"/><stop offset="0.15" stop-color="#ffbd04"/><stop offset="0.31" stop-color="#ffc011"/><stop offset="0.47" stop-color="#ffc425"/><stop offset="0.64" stop-color="#ffcb42"/><stop offset="0.8" stop-color="#ffd368"/><stop offset="0.97" stop-color="#ffdd95"/><stop offset="1" stop-color="#ffdf9f"/></linearGradient><linearGradient id="linear-gradient-5" x1="14.99" y1="16.27" x2="15.01" y2="15.26" xlink:href="#linear-gradient-4"/><radialGradient id="radial-gradient" cx="15" cy="6.75" r="4.32" gradientUnits="userSpaceOnUse"><stop offset="0.6" stop-color="#ffbc00"/><stop offset="0.76" stop-color="#ffbc02"/><stop offset="0.82" stop-color="#ffbe09"/><stop offset="0.87" stop-color="#ffc114"/><stop offset="0.9" stop-color="#ffc425"/><stop offset="0.93" stop-color="#ffc93b"/><stop offset="0.95" stop-color="#ffcf57"/><stop offset="0.98" stop-color="#ffd676"/><stop offset="1" stop-color="#ffde9b"/><stop offset="1" stop-color="#ffdf9f"/></radialGradient><radialGradient id="radial-gradient-2" cx="15" cy="6.75" r="6" gradientUnits="userSpaceOnUse"><stop offset="0.85" stop-color="#005fff"/><stop offset="0.92" stop-color="#0260ff"/><stop offset="0.94" stop-color="#0965ff"/><stop offset="0.96" stop-color="#146dfe"/><stop offset="0.97" stop-color="#2578fe"/><stop offset="0.98" stop-color="#3b86fd"/><stop offset="0.99" stop-color="#5698fd"/><stop offset="1" stop-color="#6ba6fc"/></radialGradient></defs><path class="cls-1" d="M15,29.25H7.05A7.36,7.36,0,0,1,.14,24.46a1.59,1.59,0,0,1,1.55-2.23c3.17.05,6.33,0,9.5,0a1.67,1.67,0,0,1,1.64,1c.56,1.14.31,1,1.6,1,.6,0,1.21,0,1.81,0a.63.63,0,0,0,.66-.41,7.69,7.69,0,0,1,.38-.76,1.46,1.46,0,0,1,1.36-.83c3.28,0,6.56,0,9.84,0a1.47,1.47,0,0,1,1.41,2,7.14,7.14,0,0,1-5.57,4.86,7.44,7.44,0,0,1-1.49.13Z"/><path class="cls-2" d="M27.47,21.24h-3V9c0-.61-.13-.75-.75-.75H23a.49.49,0,0,1-.52-.53c0-.65,0-1.29,0-1.94a.45.45,0,0,1,.43-.51,5.3,5.3,0,0,1,2.34.23,3.29,3.29,0,0,1,2.2,3.09c.05,4.19,0,8.37,0,12.55C27.49,21.16,27.48,21.18,27.47,21.24Z"/><path class="cls-3" d="M5.5,21.23h-3V8.92A3.51,3.51,0,0,1,6.18,5.25H7a.5.5,0,0,1,.54.51c0,.66,0,1.31,0,2A.48.48,0,0,1,7,8.25H6.1c-.42,0-.6.19-.6.62V21.23Z"/><path class="cls-4" d="M20,19.25H10a.5.5,0,0,1,0-1H20a.5.5,0,0,1,0,1Z"/><path class="cls-5" d="M20,16.25H10a.5.5,0,0,1,0-1H20a.5.5,0,0,1,0,1Z"/><path class="cls-6" d="M19.32,6.75A4.32,4.32,0,1,1,15,2.43,4.31,4.31,0,0,1,19.32,6.75Z"/><path class="cls-7" d="M15,.75a6,6,0,1,0,6,6A6,6,0,0,0,15,.75Zm0,11a5,5,0,1,1,4.95-5A5,5,0,0,1,15,11.71Z"/><circle class="cls-8" cx="15" cy="5.3" r="1.18"/><path class="cls-8" d="M17,7.91v.74l-.15.12-.05,0,0,0-.11.07-.05,0a3,3,0,0,1-1.55.45h-.14a3,3,0,0,1-1.55-.45l-.05,0-.1-.07,0,0,0,0L13,8.65V7.91a.75.75,0,0,1,0-.26,1.34,1.34,0,0,1,1.34-1,.12.12,0,0,1,.08,0l.49.49a.09.09,0,0,0,.12,0l.49-.49a.12.12,0,0,1,.08,0,1.34,1.34,0,0,1,1.34,1A.75.75,0,0,1,17,7.91Z"/></svg>