<svg id="Layer_1" data-name="Layer 1" xmlns="http://www.w3.org/2000/svg" viewBox="0 0 100 100"><defs><style>.cls-1{fill:#005fff;}.cls-2{fill:#ffbc00;}.cls-3{fill:none;stroke:#ffbc00;stroke-linecap:round;stroke-linejoin:round;stroke-width:1.5px;}</style></defs><path class="cls-1" d="M82.15,100H17.85a5.49,5.49,0,0,1-5.49-5.49v-89A5.5,5.5,0,0,1,17.85,0h64.3a5.49,5.49,0,0,1,5.49,5.49v89A5.49,5.49,0,0,1,82.15,100Zm0-96.67H17.85a2.16,2.16,0,0,0-2.16,2.16v89a2.16,2.16,0,0,0,2.16,2.16h64.3a2.16,2.16,0,0,0,2.16-2.16v-89A2.16,2.16,0,0,0,82.15,3.33Z"/><path class="cls-1" d="M36.63,50A13.38,13.38,0,0,1,23.25,36.63a13.24,13.24,0,0,1,1.15-5.44A13.37,13.37,0,1,1,40.78,49.33,13.2,13.2,0,0,1,36.63,50Zm0-24.8A11.47,11.47,0,0,0,26.17,32,11.44,11.44,0,0,0,36.63,48.05a11.43,11.43,0,0,0,0-22.86Z"/><path class="cls-2" d="M43.79,36.65a1.11,1.11,0,0,0-.37-.78l-.59-.59.07-.05A1,1,0,0,0,43.34,34a1,1,0,0,0-1-.7h-.22c-.14,0-.19,0-.22-.18-.06-.31-.14-.61-.22-.92a1.36,1.36,0,0,0-1.48-1.14H33a1.34,1.34,0,0,0-1.33,1,8.67,8.67,0,0,0-.21.88c0,.26-.15.33-.41.32a1,1,0,0,0-1.13.81,1,1,0,0,0,.53,1.13c-.18.19-.35.39-.53.55a1.27,1.27,0,0,0-.42,1c0,.53,0,1.06,0,1.59a1.89,1.89,0,0,0,1.05,1.78.27.27,0,0,1,.13.21c0,.31,0,.62,0,.94a.76.76,0,0,0,.82.83h1.36a.75.75,0,0,0,.84-.83v-1h5.93c0,.34,0,.66,0,1a.74.74,0,0,0,.8.82h1.4a.76.76,0,0,0,.82-.82c0-.3,0-.61,0-.91a.28.28,0,0,1,.17-.28,1.7,1.7,0,0,0,1-1.48C43.81,38,43.79,37.32,43.79,36.65Zm-1.24-2.33s-.12.19-.19.2c-.27,0-.15-.21-.25-.35C42.31,34.16,42.5,34.09,42.55,34.32ZM32.32,32.78c.2-.86.21-.85,1.07-.85h6.75c.48,0,.6.09.72.57.16.68.33,1.36.5,2.06a46.83,46.83,0,0,1-9.47,0C32,34,32.17,33.37,32.32,32.78Zm-1.2,1.37c-.06.17,0,.4-.25.37-.07,0-.18-.13-.17-.19C30.73,34.09,30.92,34.17,31.12,34.15ZM30.3,36.9c.45,0,.87,0,1.29,0a.57.57,0,0,1,.54.56H30.3Zm2.51,4.4H31.49v-.95h1.32Zm8.94,0h-1.3v-.94h1.3Zm.31-1.8H31.35a1,1,0,0,1-1-1.17h1.94a.73.73,0,0,0,.75-.9,1.5,1.5,0,0,0-1.54-1.36h-.64c.25-.24.44-.44.65-.62s.18,0,.27,0c1.5.08,3,.22,4.49.22s3.18-.06,4.77-.2a1.35,1.35,0,0,1,1.38.64H41.8a1.51,1.51,0,0,0-1.56,1.37.73.73,0,0,0,.76.89h1.92A1,1,0,0,1,42.06,39.49Zm.89-2H41.13a.53.53,0,0,1,.48-.56c.43,0,.87,0,1.34,0Z"/><path class="cls-2" d="M36.58,36.65H39a.72.72,0,0,1,.74.94,4,4,0,0,1-.46.95.89.89,0,0,1-.8.41H34.65a1,1,0,0,1-.33-.06,1.89,1.89,0,0,1-.92-1.68.68.68,0,0,1,.71-.56Zm-2.29.84c.17.61.19.63.77.63h3c.61,0,.61,0,.84-.57a.35.35,0,0,1,0-.06Z"/><path class="cls-1" d="M63.38,76.75A13.39,13.39,0,0,1,50,63.38,13.23,13.23,0,0,1,51.16,58,13.37,13.37,0,1,1,67.54,76.09,13.22,13.22,0,0,1,63.38,76.75Zm0-24.8a11.47,11.47,0,0,0-10.45,6.79,11.3,11.3,0,0,0-1,4.64A11.43,11.43,0,1,0,63.38,52Z"/><path class="cls-2" d="M62.73,68.65a7.88,7.88,0,0,1-3.8-1.53l1.26-1.84a6.47,6.47,0,0,0,2.62,1.31V64c-2.32-.64-3.46-1.48-3.46-3.41v0c0-1.77,1.35-3,3.38-3.16v-.93h1.68v1a6.49,6.49,0,0,1,3,1.18l-1.08,1.89a6.79,6.79,0,0,0-2-1V62c2.45.67,3.5,1.65,3.5,3.46v0c0,1.8-1.4,3-3.42,3.18v1.59H62.73Zm-1-8.19c0,.52.23.84,1.11,1.16V59.43c-.79.11-1.11.48-1.11,1Zm3.78,5.14c0-.53-.26-.87-1.15-1.19v2.26c.76-.11,1.15-.47,1.15-1Z"/><polyline class="cls-3" points="53.23 36.72 63.16 36.72 63.16 47.22"/><polyline class="cls-3" points="54.11 38.49 52.34 36.72 54.11 34.95"/><polyline class="cls-3" points="46.77 63.28 36.84 63.28 36.84 52.78"/><polyline class="cls-3" points="45.89 61.51 47.66 63.28 45.89 65.05"/></svg>