<svg id="Layer_1" data-name="Layer 1" xmlns="http://www.w3.org/2000/svg" viewBox="0 0 30 30"><defs><style>.cls-1{fill:#fff;}.cls-2{fill:#005fff;}.cls-3{fill:#ffbc00;}</style></defs><rect class="cls-1" width="30" height="30" rx="9.87"/><path class="cls-2" d="M12.2,13.74a4.88,4.88,0,1,0,4.6,6.48c.33,0,.63,0,.88,0,1.5,0,5-.16,5-1.62v0h0v-2s0-.08,0-.13,0-.09,0-.13V14.76s0-.09,0-.13,0-.09,0-.13V12.71s0-.09,0-.14a.78.78,0,0,0,0-.21.76.76,0,0,0,0-.21h0v-2s0-.09,0-.13,0-.09,0-.13V8.12s0-.09,0-.14a.78.78,0,0,0,0-.22.66.66,0,0,0-.27-.36c-1-.86-4.25-.89-4.68-.89S14,6.54,13,7.4a.64.64,0,0,0-.26.36.54.54,0,0,0,0,.22.66.66,0,0,0,0,.14V9.91a.53.53,0,0,0,0,.13.57.57,0,0,0,0,.13v2h0a.76.76,0,0,0,0,.21.52.52,0,0,0,0,.21.61.61,0,0,0,0,.14v1.06A4.07,4.07,0,0,0,12.2,13.74Zm9.89,4.84v.05c0,.54-2,1-4.41,1l-.7,0a5.34,5.34,0,0,0,.1-1c0-.09,0-.17,0-.26h.61c1.12,0,3.36-.09,4.41-.75Zm0-1.87v.05c0,.54-2,1-4.41,1l-.69,0a4.91,4.91,0,0,0-.51-1.45c.45,0,.87,0,1.2,0,1.12,0,3.36-.09,4.41-.76Zm0-4.6v.06c0,.54-2,1-4.41,1s-4.38-.44-4.41-1V11c1.05.67,3.29.76,4.41.76S21,11.64,22.09,11ZM17.68,7.23c2.5,0,4.05.46,4.31.75-.26.29-1.81.76-4.31.76s-4-.47-4.32-.76C13.63,7.69,15.18,7.23,17.68,7.23Zm0,2.23c.4,0,3.18,0,4.41-.71V10.1h0c0,.55-2,1-4.41,1s-4.38-.44-4.41-1V8.75C14.5,9.43,17.28,9.46,17.68,9.46Zm0,4.59c.4,0,3.18,0,4.41-.71v1.35h0c0,.55-2,1-4.41,1-.58,0-1.13,0-1.64-.07a4.87,4.87,0,0,0-2.77-1.76v-.52C14.5,14,17.28,14.05,17.68,14.05Zm-1.23,4.57a4.25,4.25,0,1,1-4.25-4.25A4.25,4.25,0,0,1,16.45,18.62Z"/><path class="cls-3" d="M8.92,18.62a3.29,3.29,0,1,0,3.28-3.29A3.28,3.28,0,0,0,8.92,18.62Zm6.15,0a2.87,2.87,0,1,1-2.87-2.87A2.87,2.87,0,0,1,15.07,18.62Z"/><path class="cls-3" d="M11.8,16.55v.35a1.09,1.09,0,0,0-.44.29,1.07,1.07,0,0,0-.2,1.13,1.15,1.15,0,0,0,.38.45,2.6,2.6,0,0,0,.53.27.87.87,0,0,1,.29.17s0,0,0,.05a.2.2,0,0,1,0,0,.1.1,0,0,1,0,.09.33.33,0,0,1-.21.06.93.93,0,0,1-.51-.15l-.12-.09a.22.22,0,0,0-.18,0,.21.21,0,0,0-.13.13l-.19.54a.19.19,0,0,0,.07.24l.07.05a1.35,1.35,0,0,0,.42.19l.18,0v.31a.2.2,0,0,0,.21.2h.53a.21.21,0,0,0,.21-.2v-.37A1.25,1.25,0,0,0,13.2,20a1.08,1.08,0,0,0,.27-.73,1.29,1.29,0,0,0-.06-.4,1.06,1.06,0,0,0-.35-.47,1.93,1.93,0,0,0-.52-.3h0a1.56,1.56,0,0,1-.35-.18l0,0v0a.06.06,0,0,1,0-.05.26.26,0,0,1,.16,0,.86.86,0,0,1,.28,0l.16.08.12.07a.2.2,0,0,0,.17,0,.2.2,0,0,0,.13-.12l.2-.53a.21.21,0,0,0-.09-.26l-.08,0a1.5,1.5,0,0,0-.46-.17v-.29a.21.21,0,0,0-.21-.21H12A.21.21,0,0,0,11.8,16.55Zm.42.5v-.3h.11V17a.21.21,0,0,0,.19.21,1.08,1.08,0,0,1,.41.11l-.06.14-.14-.06a1.41,1.41,0,0,0-.41-.07.67.67,0,0,0-.46.16.5.5,0,0,0-.14.35.59.59,0,0,0,0,.2.52.52,0,0,0,.13.17,2,2,0,0,0,.48.26h0a1.69,1.69,0,0,1,.43.24A.59.59,0,0,1,13,19a.71.71,0,0,1-.12.72h0a.83.83,0,0,1-.43.24.23.23,0,0,0-.16.21v.31h-.12v-.28A.21.21,0,0,0,12,20L11.71,20a1.33,1.33,0,0,1-.24-.1l0-.15a1.41,1.41,0,0,0,.64.16.71.71,0,0,0,.48-.15.55.55,0,0,0,.19-.41.46.46,0,0,0-.05-.21.36.36,0,0,0-.12-.18,1.22,1.22,0,0,0-.43-.26,2.06,2.06,0,0,1-.45-.23.76.76,0,0,1-.24-.27.7.7,0,0,1,0-.25.67.67,0,0,1,.18-.44.79.79,0,0,1,.39-.22A.2.2,0,0,0,12.22,17.05Z"/><path class="cls-3" d="M12.2,14.37A4.25,4.25,0,1,1,8,18.62a4.25,4.25,0,0,1,4.25-4.25m0-.7a4.95,4.95,0,1,0,4.95,5,5,5,0,0,0-4.95-5Z"/></svg>