<svg id="Layer_1" data-name="Layer 1" xmlns="http://www.w3.org/2000/svg" viewBox="0 0 100 100"><defs><style>.cls-1{fill:#005fff;}.cls-2{fill:none;stroke:#ffbc00;stroke-linecap:round;stroke-miterlimit:10;stroke-width:1.8px;}.cls-3{fill:#ffbc00;}</style></defs><path class="cls-1" d="M82.15,100H17.85a5.49,5.49,0,0,1-5.49-5.49v-89A5.5,5.5,0,0,1,17.85,0h64.3a5.49,5.49,0,0,1,5.49,5.49v89A5.49,5.49,0,0,1,82.15,100Zm0-96.67H17.85a2.16,2.16,0,0,0-2.16,2.16v89a2.16,2.16,0,0,0,2.16,2.16h64.3a2.16,2.16,0,0,0,2.16-2.16v-89A2.16,2.16,0,0,0,82.15,3.33Z"/><path class="cls-1" d="M30.73,84.56V50.38a1,1,0,0,1,.91-.39c1.17,0,2.33,0,3.5,0h.41c0-.77,0-1.47,0-2.17s.19-.84.86-.84h2.74c1.16,0,1.21,0,1.21,1.2V50h7.23V47.71c0-.46.22-.71.64-.72q1.77,0,3.54,0a.61.61,0,0,1,.64.68c0,.59,0,1.18,0,1.77V50h7.23c0-.75,0-1.47,0-2.2s.21-.79.79-.79c1.07,0,2.13,0,3.2,0,.63,0,.82.2.82.84s0,1.42,0,2.17h3.9c.75,0,.92.17.92.9V84c0,.74-.17.91-.9.91H31.64A1,1,0,0,1,30.73,84.56ZM32,56.64H66.24v1.19H32v1.78H68.05V51.23H64.43v3H63.24v-6h-2.4v6H59.63v-3H52.39v3H51.2v-6H48.78v6H47.57v-3H40.35v3H39.14v-6H36.73v6h-1.2v-3H32Zm0,4.22V83.7H68.05V60.86Z"/><path class="cls-1" d="M50,62.05H65.92c.79,0,.94.15.94,1q0,6.6,0,13.21a1.22,1.22,0,0,1-.39.93q-2.51,2.49-5,5a1.22,1.22,0,0,1-.93.39q-13.26,0-26.53,0c-.7,0-.88-.19-.88-.87V62.92c0-.69.18-.87.87-.87Zm15.6,1.23H34.36v18H60.24V76.73c0-.63.2-.83.84-.83h4.56Zm-4.19,17,3.14-3.15H61.45Z"/><line class="cls-2" x1="25.18" y1="16.17" x2="74.82" y2="16.17"/><line class="cls-2" x1="25.18" y1="24.51" x2="74.82" y2="24.51"/><line class="cls-2" x1="25.18" y1="32.85" x2="74.82" y2="32.85"/><path class="cls-3" d="M39.82,70h2.3c.48,0,.66.17.66.66,0,1.06,0,2.13,0,3.2,0,.5-.2.68-.7.68H37.53c-.52,0-.69-.18-.69-.71V70.72c0-.56.15-.7.72-.7Zm-1.9,1.07v2.39H41.7V71.09Z"/><path class="cls-3" d="M39.8,69.45H37.5c-.49,0-.66-.17-.66-.66,0-1.08,0-2.16,0-3.24,0-.45.18-.63.64-.64h4.64c.48,0,.66.18.66.66q0,1.62,0,3.24c0,.46-.18.63-.65.64ZM41.71,66H37.92v2.38h3.79Z"/><path class="cls-3" d="M46.78,70h2.3c.48,0,.66.18.66.66,0,1.07,0,2.14,0,3.2,0,.48-.19.67-.66.68H44.45c-.47,0-.66-.2-.66-.67V70.68c0-.48.17-.66.66-.66Zm-1.92,3.45h3.81V71.09H44.86Z"/><path class="cls-3" d="M53.75,70H56c.5,0,.66.16.66.66v3.2c0,.5-.18.68-.69.68H51.45c-.52,0-.69-.18-.7-.71V70.72c0-.54.17-.7.7-.7Zm1.87,1.08H51.84v2.37h3.78Z"/><path class="cls-3" d="M46.72,79.63c-.74,0-1.48,0-2.22,0-.54,0-.71-.16-.71-.69V75.78c0-.5.18-.68.68-.68h4.6c.48,0,.67.19.67.66q0,1.62,0,3.24c0,.45-.19.63-.65.63C48.3,79.64,47.51,79.63,46.72,79.63Zm1.93-1.07V76.18H44.87v2.38Z"/><path class="cls-3" d="M46.74,69.45H44.48c-.51,0-.69-.17-.69-.67V65.57c0-.47.19-.65.67-.66h4.63c.45,0,.65.2.65.64,0,1.1,0,2.19,0,3.28,0,.43-.19.61-.63.62ZM48.67,66h-3.8v2.37h3.8Z"/><path class="cls-3" d="M53.7,69.45H51.4c-.46,0-.64-.18-.65-.64V65.57c0-.48.19-.65.67-.66H56c.51,0,.68.18.68.68V68.8c0,.48-.17.64-.66.65ZM51.83,66v2.38h3.79V66Z"/><path class="cls-3" d="M60.66,70H63c.49,0,.65.16.65.66,0,1.07,0,2.13,0,3.2,0,.5-.18.68-.68.68H58.37c-.52,0-.7-.18-.7-.71,0-1,0-2.08,0-3.13,0-.54.16-.7.69-.7Zm1.88,1.08H58.75v2.37h3.79Z"/><path class="cls-3" d="M60.61,69.45h-2.3c-.46,0-.64-.18-.64-.64q0-1.62,0-3.24c0-.48.19-.65.67-.66h4.59c.51,0,.68.18.68.68q0,1.6,0,3.21c0,.48-.17.64-.66.65ZM58.74,66v2.38h3.79V66Z"/><path class="cls-3" d="M39.79,79.63c-.76,0-1.53,0-2.3,0-.49,0-.65-.16-.65-.66,0-1.08,0-2.16,0-3.24,0-.45.19-.63.65-.63h4.63c.47,0,.66.18.66.66,0,1.07,0,2.14,0,3.21,0,.49-.19.66-.7.66C41.32,79.64,40.56,79.63,39.79,79.63Zm1.92-3.45H37.92v2.37h3.79Z"/><path class="cls-3" d="M53.74,79.63c-.78,0-1.56,0-2.33,0-.47,0-.65-.17-.66-.63,0-1.09,0-2.19,0-3.28,0-.43.19-.62.62-.62h4.71a.53.53,0,0,1,.61.6v3.35c0,.4-.18.58-.58.58C55.32,79.64,54.53,79.63,53.74,79.63Zm-1.92-1.08h3.79V76.18H51.82Z"/></svg>