<svg id="Layer_1" data-name="Layer 1" xmlns="http://www.w3.org/2000/svg" viewBox="0 0 204.79 49.14"><defs><style>.cls-1{fill:#ffbc00;}.cls-2{fill:#005fff;}.cls-3{fill:#cde3fc;}</style></defs><path class="cls-1" d="M89.59,11.69a1.2,1.2,0,0,0-1.2,1.2v15a1.2,1.2,0,0,0,2.4,0v-15A1.2,1.2,0,0,0,89.59,11.69Z"/><path class="cls-1" d="M83.11,19.64h0a4.94,4.94,0,0,0-2-.46H64.91a2.62,2.62,0,0,1-2.63-2.3,2.54,2.54,0,0,1,2.53-2.79H83.45a1.2,1.2,0,0,0,0-2.4H64.93a5,5,0,0,0-5.05,4.54,5,5,0,0,0,2.88,4.89,4.79,4.79,0,0,0,2.05.46H81a2.62,2.62,0,0,1,2.63,2.3,2.51,2.51,0,0,1-.65,2,2.58,2.58,0,0,1-1.89.84H62.47a1.2,1.2,0,0,0,0,2.39H80.93a5,5,0,0,0,5-4.54A5,5,0,0,0,83.11,19.64Z"/><path class="cls-1" d="M116.42,19.64h0a4.94,4.94,0,0,0-2-.46H98.22a2.62,2.62,0,0,1-2.63-2.3,2.54,2.54,0,0,1,2.53-2.79h18.64a1.2,1.2,0,0,0,0-2.4H98.24a5,5,0,0,0-5,4.54,5,5,0,0,0,2.88,4.89,4.79,4.79,0,0,0,2.05.46h16.15a2.62,2.62,0,0,1,2.63,2.3,2.51,2.51,0,0,1-.65,2,2.58,2.58,0,0,1-1.89.84H95.78a1.2,1.2,0,0,0,0,2.39h18.46a5,5,0,0,0,5.05-4.54A5,5,0,0,0,116.42,19.64Z"/><path class="cls-2" d="M165.65,14.79H174v-1A1.78,1.78,0,0,0,172.22,12h-7.3a13,13,0,0,0-8.13,2.65l-.37.3-.11-.46a2.19,2.19,0,0,0-2.12-1.73.67.67,0,0,0-.66.66V28.82h2.89V21.61C156.42,17,161.93,14.79,165.65,14.79Z"/><path class="cls-2" d="M145,12H132.25c-4.76,0-5.76,2.95-5.76,5.43v5.92c0,2.48,1,5.43,5.76,5.43h15.61a1.84,1.84,0,0,0,1.85-1.84V26H132.25c-1.89,0-3-1-3-2.7V17.46c0-1.73,1.08-2.71,3-2.71H145c1.76,0,2.77.9,2.77,2.47s-1,2.37-2.87,2.37h-11.6v.93a1.21,1.21,0,0,0,1.2,1.21H145c3.87,0,5.59-1.46,5.59-4.71S148.74,12,145,12Z"/><path class="cls-2" d="M197.59,12H183.05C179,12,177,14.32,177,19.13V37.45h2.89V19.29c0-3.18,1.26-4.54,4.22-4.54h13.15c3.22,0,4.65,1.73,4.65,5.63s-1.43,5.6-4.65,5.6H185.55a1.61,1.61,0,0,0-1.61,1.61v1.18h13.65c4.64,0,7.2-3,7.2-8.39S202.23,12,197.59,12Z"/><path class="cls-2" d="M139.59,32V31H128.42a1.89,1.89,0,0,0-1.93,1.85h0a1.88,1.88,0,0,0,1.93,1.85h9.8a.91.91,0,0,1,.93.89h0a.91.91,0,0,1-.93.89H127.05v1h11.17a1.89,1.89,0,0,0,1.93-1.86h0a1.89,1.89,0,0,0-1.93-1.85h-9.8a.91.91,0,0,1-.92-.89h0a.91.91,0,0,1,.92-.89Z"/><path class="cls-2" d="M162.25,32H174V31H162.25a1.89,1.89,0,0,0-1.93,1.85h0a1.81,1.81,0,0,0,.63,1.37,1.81,1.81,0,0,0-.63,1.37h0a1.89,1.89,0,0,0,1.93,1.86H174v-1H162.25a.89.89,0,1,1,0-1.78H174v-1H162.25a.89.89,0,1,1,0-1.78Z"/><path class="cls-2" d="M155.59,31.28,150.66,36a.6.6,0,0,1-.83,0l-4.94-4.73a1,1,0,0,0-.71-.28h0a1,1,0,0,0-1,.95v5.5h1V32.19a.09.09,0,0,1,.16-.06l4.71,4.51a1.73,1.73,0,0,0,2.36,0l4.73-4.53a.08.08,0,0,1,.14,0v5.29h1V32a1,1,0,0,0-1-.95h0A1,1,0,0,0,155.59,31.28Z"/><path class="cls-3" d="M24.57,0A24.57,24.57,0,1,0,49.14,24.57,24.57,24.57,0,0,0,24.57,0Zm0,47.07a22.5,22.5,0,1,1,22.5-22.5A22.5,22.5,0,0,1,24.57,47.07Z"/><path class="cls-1" d="M41.53,22.5a35.9,35.9,0,0,0-10.17-3.4l-.13,0c-8-1.52-14.94-.72-15.41,1.79-.25,1.31,1.3,2.83,4,4.2a29.36,29.36,0,0,0,3.88,1.6c-9.29-1.1-16-4.51-16.08-8.62a3.86,3.86,0,0,1,.1-.89,3.81,3.81,0,0,1,.36-1c1.8-3.2,9.51-5.28,18.84-5,.51,0,1,0,1.56.08a50.32,50.32,0,0,1,9.68,1.49A29.4,29.4,0,0,1,41.53,22.5Z"/><path class="cls-2" d="M7.6,26.63A35.66,35.66,0,0,0,17.78,30l.12,0c8,1.52,14.94.72,15.42-1.79.25-1.31-1.3-2.83-4-4.2a28.27,28.27,0,0,0-3.88-1.6c9.29,1.1,16,4.5,16.08,8.61a3.79,3.79,0,0,1-.09.89,4.8,4.8,0,0,1-.36,1c-1.8,3.19-9.52,5.27-18.85,5-.51,0-1,0-1.55-.07A49.63,49.63,0,0,1,11,36.36,29.8,29.8,0,0,1,7.6,26.63Z"/></svg>