<svg id="Layer_1" data-name="Layer 1" xmlns="http://www.w3.org/2000/svg" viewBox="0 0 1080 1080"><defs><style>.cls-1{fill:#faac2f;}.cls-2{fill:#fff;}.cls-3{fill:#1173bc;}</style></defs><rect class="cls-1" width="1080" height="1080" rx="44.54"/><rect class="cls-2" x="73.4" y="73.4" width="933.2" height="933.2"/><ellipse class="cls-3" cx="540" cy="376.55" rx="402.08" ry="160.68" transform="translate(-95.61 205.13) rotate(-19.8)"/><rect class="cls-2" x="521.46" y="324.51" width="37.09" height="158.93" rx="18.54"/><circle class="cls-2" cx="540" cy="290.88" r="18.54"/><path class="cls-2" d="M480.53,392.35a60.06,60.06,0,0,1,7.82,29.54A61.37,61.37,0,0,1,427,483.44H275.28a17.22,17.22,0,0,1,0-34.43H425.22a26.94,26.94,0,0,0,0-53.87H320.35a62.58,62.58,0,0,1-54.46-31.65A60,60,0,0,1,258.07,334a61.37,61.37,0,0,1,61.37-61.56h151.7a17.22,17.22,0,0,1,0,34.43H321.2a26.94,26.94,0,0,0,0,53.87H426.07A62.6,62.6,0,0,1,480.53,392.35Z"/><path class="cls-2" d="M813.13,392.35A60.06,60.06,0,0,1,821,421.89a61.37,61.37,0,0,1-61.37,61.55H607.88a17.22,17.22,0,0,1,0-34.43H757.82a26.94,26.94,0,0,0,0-53.87H653a62.58,62.58,0,0,1-54.46-31.65A60,60,0,0,1,590.67,334,61.37,61.37,0,0,1,652,272.4h151.7a17.22,17.22,0,0,1,0,34.43H653.8a26.94,26.94,0,0,0,0,53.87H758.67A62.6,62.6,0,0,1,813.13,392.35Z"/><path class="cls-1" d="M293.51,293l-25.82,16.57C107.9,117.31,309.82,91.49,516,202,371.64,142.75,210.08,142.75,293.51,293Z"/><path class="cls-1" d="M773.71,482.79l28.47-19.66c136.07,157.4-16.93,217.66-255,105.55C704.64,623.14,841.34,608.27,773.71,482.79Z"/><path class="cls-1" d="M223.42,833a46.31,46.31,0,0,0-13.6,32.51c-.17,25.72,21.55,46.76,47.26,46.76H391.26a15.52,15.52,0,0,1,15.52,15.52h0a15.52,15.52,0,0,1-15.52,15.52H253.34c-42.63,0-78-34-78.47-76.65a77.48,77.48,0,0,1,77.48-78.3H391.26a15.52,15.52,0,0,1,15.52,15.52h0a15.52,15.52,0,0,1-15.52,15.52h-135A46.31,46.31,0,0,0,223.42,833Z"/><rect class="cls-1" x="223.44" y="850.3" width="183.34" height="31.04" rx="15.52"/><path class="cls-1" d="M632,875.8a45.79,45.79,0,0,0,25-40.51c.16-25.36-21.26-46.1-46.61-46.1H452.15A15.77,15.77,0,0,0,436.38,805V927a15.77,15.77,0,0,0,31.53,0V880.8H581.19a45.53,45.53,0,0,1,37.94,44.89v.07a17,17,0,0,0,17,17h0a17,17,0,0,0,16.95-17V914.22A45.51,45.51,0,0,0,632,875.8ZM467.91,819.4H607.82a15.88,15.88,0,0,1,16,14.49,15.62,15.62,0,0,1-15.57,16.71H467.91Z"/><path class="cls-1" d="M858.51,789.19H700.33A15.76,15.76,0,0,0,684.56,805h0V927a15.77,15.77,0,0,0,15.76,15.77h0A15.77,15.77,0,0,0,716.09,927V880.8H859.32a45.82,45.82,0,0,0,45.81-45.51C905.29,809.93,883.87,789.19,858.51,789.19ZM867.44,846a15.51,15.51,0,0,1-11,4.57H716.09v-31.2H856a15.87,15.87,0,0,1,16,14.5A15.55,15.55,0,0,1,867.44,846Z"/><path class="cls-3" d="M514,699.65q8,8.55,8,22t-8,22q-8,8.57-22.92,8.56H467.29q-14.94,0-22.92-8.56t-8-22q0-13.44,8-22t22.92-8.56h23.83Q506.06,691.09,514,699.65ZM503.7,708.2Q498.81,703,489.64,703H468.77q-9.16,0-14,5.23t-4.89,13.45q0,8.21,4.89,13.45t14,5.24h20.87q9.17,0,14.06-5.24t4.89-13.45Q508.59,713.45,503.7,708.2Z"/><path class="cls-3" d="M601.48,721.65q0-8.29-4.89-13.49T582.53,703H564.9q-9.18,0-14.06,5.19T546,721.65v23.84a6.74,6.74,0,1,1-13.45,0V721.65q0-13.44,8-22t22.87-8.56H584q14.84,0,22.87,8.56t8,22v23.84a6.74,6.74,0,1,1-13.45,0Z"/><path class="cls-3" d="M634.3,743.65q-8-8.55-8-22V697.81a6.74,6.74,0,1,1,13.45,0v23.84q0,8.29,4.89,13.49t14,5.2h34.75c4,0,6,2,6,5.93s-2,5.94-6,5.94H657.18Q642.33,752.21,634.3,743.65Z"/><path class="cls-3" d="M709.21,692.84a6.7,6.7,0,0,1,5-1.75,6.55,6.55,0,0,1,4.93,1.75,6.8,6.8,0,0,1,1.7,5v47.68a6.8,6.8,0,0,1-1.7,5,6.55,6.55,0,0,1-4.93,1.75,6.1,6.1,0,0,1-6.73-6.72V697.81A6.73,6.73,0,0,1,709.21,692.84Z"/><path class="cls-3" d="M802.11,721.65q0-8.29-4.89-13.49T783.16,703H765.52q-9.16,0-14,5.19t-4.89,13.49v23.84a6.74,6.74,0,1,1-13.45,0V721.65q0-13.44,8-22T764,691.09h20.61q14.83,0,22.87,8.56t8,22v23.84a6.73,6.73,0,1,1-13.44,0Z"/><path class="cls-3" d="M846.41,706.41a16.55,16.55,0,0,0-6.24,9.3h52c4,0,6,2,6,5.94s-2,5.94-6,5.94h-52a16.55,16.55,0,0,0,6.24,9.3q4.68,3.45,12,3.45h40.69c4,0,6,2,6,5.93s-2,5.94-6,5.94H856.93q-14.92,0-22.92-8.56t-8-22q0-13.44,8-22t22.92-8.56h42.18q6,0,6,5.94t-6,5.94H858.42Q851.09,703,846.41,706.41Z"/></svg>